<svg width="659" height="96" viewBox="0 0 659 96" fill="none" xmlns="http://www.w3.org/2000/svg">
<path d="M2.9375 67.5625C2.22917 67.5625 1.6875 67.2083 1.3125 66.5C0.979167 65.7917 0.8125 64.7917 0.8125 63.5C0.8125 63.2917 0.8125 63.0625 0.8125 62.8125C0.8125 62.5208 0.854167 61.9792 0.9375 61.1875C1.0625 58.1875 2.54167 56.4375 5.375 55.9375L6.8125 55.8125C7.77083 55.6875 8.52083 55.3958 9.0625 54.9375C9.60417 54.4375 10 53.75 10.25 52.875C10.9583 50.5 11.6667 48.1042 12.375 45.6875C13.0833 43.2708 13.8333 40.875 14.625 38.5C15.0417 37.1667 15.4583 35.75 15.875 34.25C16.3333 32.7083 16.8125 31.1875 17.3125 29.6875C17.8542 28.1875 18.4583 26.7083 19.125 25.25C19.8333 23.7917 20.625 22.4583 21.5 21.25C21.875 20.75 22.3958 20.2292 23.0625 19.6875C23.7292 19.1458 24.4792 18.6667 25.3125 18.25C26.1875 17.7917 27.1042 17.4375 28.0625 17.1875C29.0625 16.8958 30.0417 16.75 31 16.75C32.25 16.75 33.4792 17.1458 34.6875 17.9375C36.3125 19.0625 37.9167 20.4167 39.5 22C41.0833 23.5833 42.8542 25.6042 44.8125 28.0625C46.7708 30.5208 49.0417 33.5 51.625 37C54.2083 40.4583 57.3125 44.6458 60.9375 49.5625C61.4792 50.1875 62.0417 50.6667 62.625 51C63.25 51.2917 63.9792 51.4375 64.8125 51.4375H68.375C69.8333 51.4375 70.9583 51.7917 71.75 52.5C72.5833 53.1667 73 54.1042 73 55.3125C73 55.5625 72.9792 55.8542 72.9375 56.1875C72.9375 56.5208 72.875 56.8542 72.75 57.1875L71.5625 60.6875C71.4792 61.0208 71.4167 61.3125 71.375 61.5625C71.3333 61.8125 71.3125 62.0625 71.3125 62.3125C71.3125 63.1875 71.6042 64.0833 72.1875 65L78.875 74.125C79.625 75.25 80 76.3125 80 77.3125C80 78.8125 79.1458 80.125 77.4375 81.25L75.0625 82.9375C74.4792 83.3125 73.9167 83.6042 73.375 83.8125C72.875 84.0208 72.3542 84.125 71.8125 84.125C71.0625 84.125 70.3542 83.8958 69.6875 83.4375C69.0625 83.0208 68.4583 82.4375 67.875 81.6875C65.875 78.8542 63.8542 76.0625 61.8125 73.3125C59.8125 70.5625 57.7708 67.8333 55.6875 65.125C54.7292 63.7917 53.4583 63.125 51.875 63.125C46.7917 63.3333 41.75 63.625 36.75 64C31.7917 64.3333 26.8125 64.75 21.8125 65.25C20.0208 65.4167 18.8958 66.375 18.4375 68.125L15.625 78.4375C14.875 81.1875 13.2083 82.5625 10.625 82.5625H9.625L7.6875 82.3125C6.27083 82.1875 5.1875 81.75 4.4375 81C3.72917 80.25 3.375 79.2708 3.375 78.0625C3.375 77.8125 3.39583 77.5417 3.4375 77.25C3.47917 76.9583 3.54167 76.6458 3.625 76.3125C3.83333 75.4792 4.04167 74.625 4.25 73.75C4.5 72.875 4.75 72.0208 5 71.1875C5.08333 70.8542 5.14583 70.5625 5.1875 70.3125C5.22917 70.0208 5.25 69.75 5.25 69.5C5.25 68.2083 4.75 67.5625 3.75 67.5625H2.9375ZM32.6875 34.5625C32.2708 34.1875 31.8958 33.875 31.5625 33.625C31.2292 33.375 30.875 33.25 30.5 33.25C29.4583 33.25 28.7292 33.9792 28.3125 35.4375C27.4792 37.8958 26.6667 40.3333 25.875 42.75C25.125 45.125 24.3542 47.5625 23.5625 50.0625C23.4792 50.2708 23.4375 50.4583 23.4375 50.625C23.4375 50.7917 23.4375 50.9792 23.4375 51.1875C23.4375 52.7292 24.25 53.5 25.875 53.5H26.5C29 53.1667 31.5 52.9167 34 52.75C36.5 52.5417 39 52.375 41.5 52.25C42.3333 52.1667 42.9792 51.9583 43.4375 51.625C43.9375 51.25 44.1875 50.7708 44.1875 50.1875C44.1875 49.6458 43.9375 49 43.4375 48.25C41.6875 45.9167 39.9167 43.625 38.125 41.375C36.375 39.0833 34.5625 36.8125 32.6875 34.5625ZM82.1875 65.5625C81.3958 55.8125 80.4792 46.125 79.4375 36.5C78.4375 26.875 76.9583 17.2708 75 7.6875C74.9167 7.35417 74.875 7.0625 74.875 6.8125C74.875 6.52083 74.875 6.25 74.875 6C74.875 5.04167 75.0625 4.20833 75.4375 3.5C75.8542 2.79167 76.3958 2.20833 77.0625 1.75C77.7292 1.25 78.4792 0.875 79.3125 0.625C80.1875 0.375 81.1042 0.25 82.0625 0.25C84.6042 0.25 86.3542 1.4375 87.3125 3.8125C87.7292 5.02083 88.1458 6.75 88.5625 9C89.0208 11.25 89.4792 13.8542 89.9375 16.8125C90.4375 19.7708 90.9167 23.0208 91.375 26.5625C91.8333 30.0625 92.2708 33.6667 92.6875 37.375C92.8125 38.4167 93.1458 38.9375 93.6875 38.9375C94.1458 38.9375 94.625 38.625 95.125 38C101.208 30 108.417 26 116.75 26C119.875 26 122.792 26.6875 125.5 28.0625C128.208 29.4375 130.562 31.3125 132.562 33.6875C134.562 36.0625 136.125 38.875 137.25 42.125C138.417 45.375 139 48.875 139 52.625C139 56.125 138.438 59.375 137.312 62.375C136.229 65.375 134.708 67.9583 132.75 70.125C130.792 72.2917 128.458 74 125.75 75.25C123.083 76.4583 120.167 77.0625 117 77.0625C113.083 77.0625 109.25 76.3125 105.5 74.8125C101.75 73.2708 98.2083 71.2083 94.875 68.625C94.5 68.2917 94.1042 68.125 93.6875 68.125C93.1458 68.125 92.6458 68.4167 92.1875 69C91.5208 69.75 90.8125 70.25 90.0625 70.5C89.3125 70.7083 88.3958 70.8125 87.3125 70.8125C84.0208 70.8125 82.3125 69.0625 82.1875 65.5625ZM114.562 37.625C112.896 37.625 111.229 38.0208 109.562 38.8125C107.938 39.5625 106.396 40.6458 104.938 42.0625C103.479 43.4792 102.125 45.1875 100.875 47.1875C99.6667 49.1458 98.6458 51.3333 97.8125 53.75C97.7292 53.875 97.6667 54.0625 97.625 54.3125C97.5833 54.5625 97.5625 54.7708 97.5625 54.9375C97.5625 55.6458 97.8125 56.1875 98.3125 56.5625C99.8125 57.8542 101.354 59.0625 102.938 60.1875C104.562 61.3125 106.167 62.2917 107.75 63.125C109.333 63.9583 110.896 64.625 112.438 65.125C113.979 65.5833 115.417 65.8125 116.75 65.8125C119.75 65.8125 122.021 64.9375 123.562 63.1875C125.146 61.4375 125.938 58.8958 125.938 55.5625C125.938 52.9792 125.646 50.6042 125.062 48.4375C124.479 46.2292 123.688 44.3333 122.688 42.75C121.688 41.125 120.479 39.875 119.062 39C117.688 38.0833 116.188 37.625 114.562 37.625ZM148.125 59.25C148.125 58.5417 148.208 57.75 148.375 56.875C148.542 56 148.625 55.0417 148.625 54C148.625 53.2917 148.312 52.75 147.688 52.375C147.104 52 146.438 51.5833 145.688 51.125C144.938 50.6667 144.25 50.0833 143.625 49.375C143.042 48.6667 142.75 47.6458 142.75 46.3125C142.75 45.3542 143 44.3958 143.5 43.4375C144.042 42.4792 144.812 41.6042 145.812 40.8125C148.271 38.9792 150.812 37.3333 153.438 35.875C156.104 34.4167 158.75 33.1875 161.375 32.1875C164.042 31.1875 166.667 30.4167 169.25 29.875C171.833 29.3333 174.312 29.0625 176.688 29.0625C180.688 29.0625 184.438 29.8125 187.938 31.3125C191.479 32.7708 194.542 34.7917 197.125 37.375C199.75 39.9167 201.812 42.9167 203.312 46.375C204.854 49.7917 205.625 53.4583 205.625 57.375C205.625 61.2083 204.812 64.8542 203.188 68.3125C201.604 71.7292 199.458 74.7292 196.75 77.3125C194.042 79.8958 190.854 81.9375 187.188 83.4375C183.562 84.9792 179.729 85.75 175.688 85.75C171.729 85.75 168.062 85.0833 164.688 83.75C161.312 82.4167 158.396 80.5833 155.938 78.25C153.479 75.875 151.562 73.0833 150.188 69.875C148.812 66.625 148.125 63.0833 148.125 59.25ZM177.062 74.5C178.812 74.5 180.625 74.1458 182.5 73.4375C184.375 72.7292 186.083 71.7083 187.625 70.375C189.208 69 190.5 67.3333 191.5 65.375C192.542 63.4167 193.062 61.2083 193.062 58.75C193.062 56.25 192.604 53.9167 191.688 51.75C190.771 49.5833 189.5 47.7083 187.875 46.125C186.292 44.5 184.396 43.2292 182.188 42.3125C180.021 41.3958 177.667 40.9375 175.125 40.9375C170.5 40.9375 166.958 42.1458 164.5 44.5625C162.042 46.9375 160.812 50.6042 160.812 55.5625C160.812 58.2708 161.208 60.7917 162 63.125C162.833 65.4167 163.979 67.4167 165.438 69.125C166.896 70.7917 168.604 72.1042 170.562 73.0625C172.562 74.0208 174.729 74.5 177.062 74.5ZM226.938 57.875C226.938 63.4583 227.792 67.7708 229.5 70.8125C231.208 73.8542 233.688 75.375 236.938 75.375C238.979 75.375 240.854 74.7708 242.562 73.5625C244.312 72.3542 245.812 70.6667 247.062 68.5C248.312 66.3333 249.271 63.7708 249.938 60.8125C250.646 57.8125 251 54.5625 251 51.0625C251 48.9375 250.917 47.1042 250.75 45.5625C250.583 43.9792 250.396 42.5833 250.188 41.375C250.021 40.125 249.854 39.0208 249.688 38.0625C249.521 37.1042 249.438 36.1875 249.438 35.3125C249.438 33.9792 250 33.0208 251.125 32.4375C252.25 31.8125 254.042 31.5 256.5 31.5C259.625 31.5 262.042 32.2083 263.75 33.625C265.5 35.0417 266.375 37.1042 266.375 39.8125C266.375 47.1875 265.646 53.8125 264.188 59.6875C262.771 65.5625 260.708 70.5625 258 74.6875C255.333 78.7708 252.083 81.9167 248.25 84.125C244.417 86.3333 240.125 87.4375 235.375 87.4375C232 87.4375 228.875 86.7292 226 85.3125C223.167 83.9375 220.708 82 218.625 79.5C216.583 76.9583 214.979 73.9583 213.812 70.5C212.646 67 212.062 63.1667 212.062 59C212.062 57.4167 212.104 55.7292 212.188 53.9375C212.271 52.1458 212.396 50.2292 212.562 48.1875C212.729 46.1042 212.938 43.8542 213.188 41.4375C213.479 39.0208 213.792 36.3958 214.125 33.5625C214.25 32.3542 214.812 31.3958 215.812 30.6875C216.854 29.9375 218.167 29.5625 219.75 29.5625C221.167 29.5625 222.5 29.7083 223.75 30C225 30.2917 226.062 30.6875 226.938 31.1875C227.854 31.6875 228.562 32.2708 229.062 32.9375C229.604 33.6042 229.875 34.3125 229.875 35.0625C229.875 35.8125 229.708 37 229.375 38.625C229.083 40.2083 228.75 42.0417 228.375 44.125C228.042 46.1667 227.708 48.3958 227.375 50.8125C227.083 53.1875 226.938 55.5417 226.938 57.875ZM279.75 7.8125C279.75 5.60417 280.375 4.0625 281.625 3.1875C282.875 2.27083 284.938 1.8125 287.812 1.8125C288.854 1.8125 289.729 1.91667 290.438 2.125C291.188 2.29167 291.812 2.625 292.312 3.125C292.854 3.625 293.271 4.29167 293.562 5.125C293.896 5.91667 294.167 6.9375 294.375 8.1875C294.875 12.0625 295.417 16.0625 296 20.1875C296.625 24.3125 297.271 28.4583 297.938 32.625C298.188 34.5 299.167 35.4375 300.875 35.4375C301.333 35.4375 302.083 35.3958 303.125 35.3125C304.208 35.1875 305.479 35.0625 306.938 34.9375C308.396 34.7708 309.958 34.6042 311.625 34.4375C313.333 34.2708 315.021 34.125 316.688 34C318.396 33.8333 320 33.7083 321.5 33.625C323.042 33.5 324.396 33.4375 325.562 33.4375C326.479 33.4375 327.208 33.625 327.75 34C328.292 34.3333 328.708 34.7917 329 35.375C329.333 35.9167 329.542 36.5417 329.625 37.25C329.75 37.9167 329.812 38.6042 329.812 39.3125C329.812 39.9375 329.688 40.5833 329.438 41.25C329.229 41.9167 328.917 42.5208 328.5 43.0625C328.125 43.5625 327.646 43.9792 327.062 44.3125C326.479 44.6458 325.812 44.8125 325.062 44.8125C321.438 44.8125 317.771 44.9375 314.062 45.1875C310.396 45.3958 306.729 45.6875 303.062 46.0625C301.188 46.3125 300.25 47.25 300.25 48.875C300.25 49 300.271 49.1667 300.312 49.375C300.354 49.5417 300.375 49.6875 300.375 49.8125C300.875 53.4375 301.333 56.8333 301.75 60C302.208 63.1667 302.583 66 302.875 68.5C303.208 70.9583 303.458 73.0208 303.625 74.6875C303.833 76.3125 303.938 77.3958 303.938 77.9375C303.938 79.4375 303.792 80.6875 303.5 81.6875C303.208 82.7292 302.729 83.5625 302.062 84.1875C301.396 84.8542 300.5 85.3125 299.375 85.5625C298.292 85.8542 296.917 86 295.25 86C293.667 86 292.5 85.625 291.75 84.875C291 84.125 290.583 82.9792 290.5 81.4375C290.25 76.5208 289.854 71.5833 289.312 66.625C288.771 61.625 288.146 56.6458 287.438 51.6875C287.062 49.8958 286.125 49 284.625 49C284.5 49 284.354 49.0208 284.188 49.0625C284.021 49.1042 283.875 49.125 283.75 49.125C281.167 49.7083 278.729 50.2917 276.438 50.875C274.146 51.4583 272 52.0833 270 52.75C268.875 53.125 267.875 53.3958 267 53.5625C266.125 53.6875 265.333 53.75 264.625 53.75C263.667 53.75 262.958 53.3333 262.5 52.5C262.042 51.625 261.812 50.5417 261.812 49.25C261.812 48.7917 261.854 48.2708 261.938 47.6875C262.021 47.0625 262.188 46.4583 262.438 45.875C262.646 45.25 262.979 44.6875 263.438 44.1875C263.854 43.6458 264.438 43.2083 265.188 42.875C266.938 42.1667 269.271 41.4375 272.188 40.6875C275.104 39.8958 278.396 39.1667 282.062 38.5C282.896 38.2917 283.542 37.9583 284 37.5C284.5 37 284.75 36.2708 284.75 35.3125C284.75 35.1042 284.75 34.8958 284.75 34.6875C284.75 34.4375 284.708 34.1875 284.625 33.9375C283.958 30.1042 283.312 26.625 282.688 23.5C282.104 20.3333 281.583 17.625 281.125 15.375C280.708 13.125 280.375 11.3542 280.125 10.0625C279.875 8.77083 279.75 8.02083 279.75 7.8125ZM380.188 6.8125C380.229 6.1875 380.354 5.60417 380.562 5.0625C380.771 4.52083 381.125 4.04167 381.625 3.625C382.167 3.16667 382.875 2.8125 383.75 2.5625C384.625 2.3125 385.729 2.1875 387.062 2.1875C388.146 2.1875 389.021 2.54167 389.688 3.25C390.354 3.91667 390.688 4.91667 390.688 6.25L390.188 15.25C392.896 15.5833 395.042 16.0625 396.625 16.6875C398.208 17.3125 399 18.1042 399 19.0625C399 19.4375 398.938 19.8958 398.812 20.4375C398.688 20.9375 398.354 21.7708 397.812 22.9375C397.229 24.0208 396.604 24.8333 395.938 25.375C395.312 25.875 394.458 26.125 393.375 26.125H389.625L388.875 40.3125C391.125 41.7708 393.438 43.375 395.812 45.125C398.229 46.8333 400.396 48.6875 402.312 50.6875C404.271 52.6875 405.875 54.8125 407.125 57.0625C408.375 59.2708 409 61.5833 409 64C409 66.7083 408.375 69.1042 407.125 71.1875C405.875 73.2292 404.271 74.9375 402.312 76.3125C400.396 77.6875 398.25 78.7292 395.875 79.4375C393.542 80.1458 391.25 80.5 389 80.5C388.625 80.5 388.25 80.5 387.875 80.5C387.5 80.5 387.104 80.4583 386.688 80.375L386.188 91.375C386.146 92 386.021 92.5833 385.812 93.125C385.604 93.6667 385.25 94.1458 384.75 94.5625C384.25 95.0208 383.542 95.375 382.625 95.625C381.75 95.875 380.625 96 379.25 96C378.167 96 377.292 95.6458 376.625 94.9375C376 94.2292 375.688 93.2083 375.688 91.875L376.438 77.9375C374.146 76.9792 371.979 75.7917 369.938 74.375C367.896 72.9583 366.104 71.3542 364.562 69.5625C363.062 67.7292 361.875 65.75 361 63.625C360.125 61.5 359.688 59.2708 359.688 56.9375C359.688 56.0208 359.75 55.1042 359.875 54.1875C360 53.2292 360.229 52.375 360.562 51.625C360.938 50.875 361.417 50.2708 362 49.8125C362.583 49.3542 363.354 49.125 364.312 49.125C364.646 49.125 364.938 49.1667 365.188 49.25C365.479 49.2917 365.792 49.3542 366.125 49.4375L367.25 49.8125C367.708 49.8958 368.188 50.0833 368.688 50.375C369.188 50.625 369.646 50.9375 370.062 51.3125C370.479 51.6875 370.812 52.125 371.062 52.625C371.354 53.125 371.5 53.6667 371.5 54.25C371.5 56.4583 372 58.5 373 60.375C374 62.2083 375.375 63.8333 377.125 65.25L378 47.25C375.458 45.625 373.042 44.0833 370.75 42.625C368.458 41.1667 366.438 39.7292 364.688 38.3125C362.938 36.8542 361.542 35.3958 360.5 33.9375C359.458 32.4792 358.938 30.8958 358.938 29.1875C358.938 27.1875 359.562 25.3958 360.812 23.8125C362.104 22.1875 363.75 20.7917 365.75 19.625C367.75 18.4167 369.979 17.4375 372.438 16.6875C374.896 15.9375 377.312 15.4167 379.688 15.125L380.188 6.8125ZM387.312 69.875C387.896 69.9583 388.479 70.0208 389.062 70.0625C389.646 70.1042 390.229 70.125 390.812 70.125C391.562 70.125 392.312 70.0625 393.062 69.9375C393.854 69.7708 394.562 69.5417 395.188 69.25C395.854 68.9167 396.396 68.4792 396.812 67.9375C397.229 67.3958 397.438 66.7292 397.438 65.9375C397.438 65.1042 397.167 64.1667 396.625 63.125C396.125 62.0417 395.438 60.9583 394.562 59.875C393.729 58.75 392.75 57.6667 391.625 56.625C390.5 55.5833 389.333 54.6667 388.125 53.875L387.312 69.875ZM372.75 28.5625C372.75 29.1042 372.938 29.6458 373.312 30.1875C373.688 30.6875 374.167 31.1875 374.75 31.6875C375.333 32.1458 375.979 32.5833 376.688 33C377.396 33.4167 378.083 33.8125 378.75 34.1875L379.125 25.0625C378.333 25.1458 377.542 25.2708 376.75 25.4375C376 25.5625 375.333 25.7708 374.75 26.0625C374.167 26.3125 373.688 26.6458 373.312 27.0625C372.938 27.4375 372.75 27.9375 372.75 28.5625ZM423.875 34.3125C423.083 34.3125 422.167 34.4583 421.125 34.75C420.083 35 419 35.3125 417.875 35.6875C416.75 36.0208 415.625 36.3333 414.5 36.625C413.417 36.875 412.438 37 411.562 37C410.646 37 409.917 36.8542 409.375 36.5625C408.875 36.2292 408.5 35.8125 408.25 35.3125C408 34.8125 407.854 34.2708 407.812 33.6875C407.771 33.1042 407.75 32.5417 407.75 32C407.75 30.4167 408.208 29.125 409.125 28.125C410.083 27.125 411.438 26.2917 413.188 25.625C414.938 24.9167 417.042 24.3333 419.5 23.875C422 23.375 424.812 22.8333 427.938 22.25C432.854 21.3333 437.333 20.625 441.375 20.125C445.458 19.625 449.333 19.2708 453 19.0625C456.708 18.8125 460.333 18.6667 463.875 18.625C467.417 18.5833 471.146 18.5625 475.062 18.5625C476.229 18.5625 477.146 18.7083 477.812 19C478.479 19.2917 478.958 19.6667 479.25 20.125C479.583 20.5833 479.771 21.1042 479.812 21.6875C479.896 22.2708 479.938 22.8542 479.938 23.4375C479.938 24.1042 479.833 24.8333 479.625 25.625C479.458 26.375 479.146 27.0833 478.688 27.75C478.271 28.375 477.688 28.8958 476.938 29.3125C476.229 29.7292 475.354 29.9375 474.312 29.9375H469.312C467.312 29.9375 465.188 29.9583 462.938 30C460.688 30 458.458 30.0417 456.25 30.125C454.042 30.1667 451.917 30.25 449.875 30.375C447.875 30.5 446.083 30.6875 444.5 30.9375C442.958 31.1458 441.729 31.4167 440.812 31.75C439.896 32.0833 439.438 32.5 439.438 33C439.438 33.5 439.625 34.3333 440 35.5C440.375 36.6667 440.833 37.9375 441.375 39.3125C441.917 40.6458 442.458 41.9792 443 43.3125C443.583 44.6042 444.062 45.6875 444.438 46.5625C444.771 47.2708 445.146 47.75 445.562 48C445.979 48.25 446.542 48.375 447.25 48.375C448.958 48.375 450.708 48.2708 452.5 48.0625C454.292 47.8542 456.083 47.625 457.875 47.375C459.708 47.0833 461.521 46.8333 463.312 46.625C465.146 46.4167 466.958 46.3125 468.75 46.3125C469.75 46.3125 470.562 46.5 471.188 46.875C471.854 47.2083 472.375 47.6458 472.75 48.1875C473.125 48.6875 473.375 49.2292 473.5 49.8125C473.667 50.3958 473.75 50.8958 473.75 51.3125C473.75 53.1875 473.167 54.6042 472 55.5625C470.833 56.4792 469.25 57.1667 467.25 57.625C465.25 58.0833 462.917 58.3958 460.25 58.5625C457.625 58.7292 454.833 58.9583 451.875 59.25L450.375 59.375C449.833 59.4583 449.417 59.6458 449.125 59.9375C448.833 60.2292 448.688 60.6042 448.688 61.0625C448.688 61.1875 448.708 61.2917 448.75 61.375C448.792 61.4583 448.812 61.5625 448.812 61.6875C449.188 63.0625 449.625 64.6042 450.125 66.3125C450.625 67.9792 451.083 69.6458 451.5 71.3125C451.958 72.9792 452.333 74.5625 452.625 76.0625C452.917 77.5625 453.062 78.7917 453.062 79.75C453.062 81.6667 452.333 83.125 450.875 84.125C449.458 85.125 447.438 85.625 444.812 85.625C443.854 85.625 442.917 85.3958 442 84.9375C441.125 84.5208 440.583 83.7292 440.375 82.5625C439.708 79.1458 438.958 75.8125 438.125 72.5625C437.292 69.2708 436.417 66 435.5 62.75C435.125 61.625 434.396 61.0625 433.312 61.0625C432.062 61.0625 430.646 61.0208 429.062 60.9375C427.521 60.8542 425.938 60.6875 424.312 60.4375C422.688 60.1875 421.104 59.875 419.562 59.5C418.062 59.0833 416.708 58.5417 415.5 57.875C414.333 57.2083 413.375 56.4167 412.625 55.5C411.917 54.5833 411.562 53.5 411.562 52.25C411.562 51.4583 411.75 50.6875 412.125 49.9375C412.5 49.1458 412.979 48.4583 413.562 47.875C414.146 47.25 414.771 46.75 415.438 46.375C416.146 46 416.812 45.8125 417.438 45.8125C418.188 45.8125 419 46 419.875 46.375C420.75 46.75 421.688 47.1667 422.688 47.625C423.688 48.0833 424.75 48.5 425.875 48.875C427.042 49.25 428.292 49.4375 429.625 49.4375C430.292 49.4375 430.625 49.0833 430.625 48.375C430.625 47.7083 430.5 46.8333 430.25 45.75C430.042 44.6667 429.75 43.5417 429.375 42.375C429 41.1667 428.562 40 428.062 38.875C427.604 37.7083 427.104 36.7292 426.562 35.9375C426.229 35.4375 425.875 35.0417 425.5 34.75C425.167 34.4583 424.625 34.3125 423.875 34.3125ZM480.875 21.625C480.875 20.875 481.062 20.1875 481.438 19.5625C481.812 18.8958 482.333 18.3333 483 17.875C483.667 17.375 484.438 16.9792 485.312 16.6875C486.229 16.3958 487.188 16.25 488.188 16.25C490.146 16.25 491.583 16.5625 492.5 17.1875C493.417 17.8125 493.979 18.7917 494.188 20.125C494.896 25.6667 495.479 30.9167 495.938 35.875C496.438 40.7917 496.833 45.5 497.125 50C497.417 54.4583 497.625 58.75 497.75 62.875C497.875 66.9583 497.938 70.9167 497.938 74.75C497.938 76.8333 497.188 78.3958 495.688 79.4375C494.229 80.4792 492.083 81 489.25 81C487.958 81 486.938 80.6875 486.188 80.0625C485.479 79.4792 485.125 78.6042 485.125 77.4375C485.125 70.2708 484.896 63.5625 484.438 57.3125C484.021 51.0208 483.542 45.4375 483 40.5625C482.458 35.6875 481.958 31.625 481.5 28.375C481.083 25.0833 480.875 22.8333 480.875 21.625ZM524.688 48.75C524.688 50.5 524.771 52.3125 524.938 54.1875C525.104 56.0625 525.292 57.9375 525.5 59.8125C525.75 61.6875 525.958 63.5833 526.125 65.5C526.292 67.375 526.375 69.2292 526.375 71.0625C526.375 73.1042 525.667 74.7708 524.25 76.0625C522.833 77.3125 520.938 77.9375 518.562 77.9375C517.396 77.9375 516.292 77.5833 515.25 76.875C514.25 76.1667 513.688 75.0417 513.562 73.5C513.354 71.5417 513.146 69.3542 512.938 66.9375C512.771 64.4792 512.604 61.9583 512.438 59.375C512.312 56.75 512.188 54.125 512.062 51.5C511.938 48.8333 511.833 46.2917 511.75 43.875C511.667 41.4167 511.604 39.1667 511.562 37.125C511.521 35.0417 511.5 33.2917 511.5 31.875C511.5 30.625 511.583 29.4375 511.75 28.3125C511.917 27.1875 512.271 26.2083 512.812 25.375C513.354 24.5417 514.083 23.875 515 23.375C515.958 22.875 517.229 22.625 518.812 22.625C520.021 22.625 521.375 23.0625 522.875 23.9375C524.375 24.7708 525.979 25.9167 527.688 27.375C529.438 28.8333 531.292 30.5208 533.25 32.4375C535.208 34.3125 537.229 36.2917 539.312 38.375C541.396 40.4583 543.521 42.5833 545.688 44.75C547.896 46.875 550.125 48.8958 552.375 50.8125C553.375 51.6875 554.5 52.7083 555.75 53.875C557.042 55.0417 558.354 56.1458 559.688 57.1875C561.062 58.2292 562.417 59.125 563.75 59.875C565.125 60.5833 566.438 60.9375 567.688 60.9375C568.854 60.9375 569.604 60.4375 569.938 59.4375C570.312 58.3958 570.5 56.75 570.5 54.5C570.5 52.8333 570.354 50.7708 570.062 48.3125C569.812 45.8542 569.438 43.2292 568.938 40.4375C568.438 37.6458 567.812 34.8542 567.062 32.0625C566.312 29.2292 565.458 26.6458 564.5 24.3125C564.292 23.8125 564.083 23.3333 563.875 22.875C563.708 22.375 563.625 21.8333 563.625 21.25C563.625 20.2917 563.938 19.4375 564.562 18.6875C565.188 17.9375 565.938 17.3125 566.812 16.8125C567.688 16.3125 568.604 15.9375 569.562 15.6875C570.521 15.3958 571.312 15.25 571.938 15.25C573.312 15.25 574.542 16 575.625 17.5C576.708 18.9583 577.646 20.875 578.438 23.25C579.271 25.5833 579.958 28.2292 580.5 31.1875C581.042 34.1042 581.479 37.0417 581.812 40C582.188 42.9583 582.438 45.7917 582.562 48.5C582.729 51.1667 582.812 53.3958 582.812 55.1875C582.812 58.5625 582.667 61.5417 582.375 64.125C582.125 66.6667 581.562 68.8125 580.688 70.5625C579.854 72.3125 578.625 73.6458 577 74.5625C575.375 75.4375 573.208 75.875 570.5 75.875C568.333 75.875 566.062 75.4375 563.688 74.5625C561.312 73.6458 558.896 72.4375 556.438 70.9375C554.021 69.3958 551.562 67.6458 549.062 65.6875C546.604 63.7292 544.188 61.6875 541.812 59.5625C539.438 57.4375 537.125 55.3125 534.875 53.1875C532.667 51.0625 530.604 49.0833 528.688 47.25C527.896 46.4583 527.167 46.0625 526.5 46.0625C525.917 46.0625 525.458 46.3125 525.125 46.8125C524.833 47.2708 524.688 47.9167 524.688 48.75ZM594.75 28.5625C595 27.1042 595.708 26.0208 596.875 25.3125C598.042 24.5625 599.979 24.1875 602.688 24.1875C604.146 24.1875 605.271 24.5625 606.062 25.3125C606.896 26.0625 607.312 27.1042 607.312 28.4375C607.312 28.6458 607.292 28.8333 607.25 29C607.208 29.1667 607.188 29.3542 607.188 29.5625C606.729 32.2708 606.354 35.0833 606.062 38C605.771 40.9167 605.625 43.875 605.625 46.875C605.625 50.75 605.958 54.4167 606.625 57.875C607.333 61.2917 608.562 64.2917 610.312 66.875C612.104 69.4167 614.521 71.4375 617.562 72.9375C620.646 74.3958 624.562 75.125 629.312 75.125C631.979 75.125 634.333 74.6458 636.375 73.6875C638.417 72.7292 640.104 71.4167 641.438 69.75C642.812 68.0417 643.833 66.0417 644.5 63.75C645.208 61.4583 645.562 58.9792 645.562 56.3125C645.562 53.6458 645.271 51.0208 644.688 48.4375C644.146 45.8542 643.396 43.3125 642.438 40.8125C641.521 38.2708 640.438 35.7708 639.188 33.3125C637.979 30.8542 636.688 28.375 635.312 25.875C634.729 24.75 634.438 23.7292 634.438 22.8125C634.438 21.1875 635.292 19.8125 637 18.6875L639.562 17C640.688 16.25 641.75 15.875 642.75 15.875C644.292 15.875 645.583 16.8125 646.625 18.6875C648.208 21.4792 649.729 24.3125 651.188 27.1875C652.646 30.0208 653.917 32.9375 655 35.9375C656.125 38.9375 657 42.0417 657.625 45.25C658.292 48.4167 658.625 51.6875 658.625 55.0625C658.625 59.7708 657.833 64.0625 656.25 67.9375C654.708 71.8125 652.5 75.1458 649.625 77.9375C646.75 80.6875 643.292 82.8125 639.25 84.3125C635.25 85.8542 630.792 86.625 625.875 86.625C620.542 86.625 615.792 85.6875 611.625 83.8125C607.5 81.9792 604.021 79.4375 601.188 76.1875C598.354 72.8958 596.208 69.0208 594.75 64.5625C593.292 60.0625 592.562 55.1875 592.562 49.9375C592.562 46.2708 592.771 42.6042 593.188 38.9375C593.646 35.2292 594.167 31.7708 594.75 28.5625Z" fill="black"/>
</svg>
