<svg width="723" height="630" viewBox="0 0 723 630" fill="none" xmlns="http://www.w3.org/2000/svg">
<path d="M150.375 28.4375C149.542 28.3542 148.75 28.0833 148 27.625C147.25 27.1667 146.583 26.5833 146 25.875C145.458 25.125 145.021 24.3125 144.688 23.4375C144.354 22.5208 144.188 21.5833 144.188 20.625C144.188 19.4167 144.479 18.4583 145.062 17.75C145.688 17.0417 146.479 16.6875 147.438 16.6875C147.979 16.6875 148.854 16.75 150.062 16.875C151.271 17 152.688 17.1667 154.312 17.375C155.979 17.5417 157.771 17.75 159.688 18C161.646 18.2083 163.625 18.4167 165.625 18.625C167.667 18.7917 169.667 18.9375 171.625 19.0625C173.583 19.1875 175.417 19.25 177.125 19.25C178.083 19.25 178.938 19.1458 179.688 18.9375C180.479 18.6875 181.292 18.3125 182.125 17.8125C183.583 16.7708 185.25 15.9583 187.125 15.375C189.042 14.7917 191.042 14.5 193.125 14.5C195.167 14.5 197.333 14.875 199.625 15.625C201.917 16.3333 204.021 17.25 205.938 18.375C207.896 19.4583 209.5 20.6667 210.75 22C212.042 23.3333 212.688 24.5833 212.688 25.75C212.688 26.6667 212.479 27.4375 212.062 28.0625C211.688 28.6875 210.979 29.2083 209.938 29.625C208.896 30 207.458 30.3333 205.625 30.625C203.833 30.875 201.542 31.0833 198.75 31.25C197.792 31.3333 197.083 31.625 196.625 32.125C196.167 32.5833 195.938 33.2292 195.938 34.0625C195.938 34.8125 196.125 36.1042 196.5 37.9375C196.917 39.7292 197.354 41.9583 197.812 44.625C198.312 47.25 198.75 50.2708 199.125 53.6875C199.542 57.0625 199.75 60.6875 199.75 64.5625C199.75 68.5208 199.188 72.125 198.062 75.375C196.979 78.5833 195.417 81.3333 193.375 83.625C191.333 85.9167 188.875 87.6667 186 88.875C183.125 90.125 179.917 90.75 176.375 90.75C173.25 90.75 170.208 90.2917 167.25 89.375C164.333 88.4583 161.583 87.1875 159 85.5625C156.417 83.9375 154.042 81.9792 151.875 79.6875C149.75 77.3958 147.917 74.875 146.375 72.125C144.833 69.375 143.625 66.4375 142.75 63.3125C141.917 60.1875 141.5 56.9583 141.5 53.625C141.5 52.0833 141.958 50.8125 142.875 49.8125C143.792 48.7708 144.958 48.25 146.375 48.25C147.667 48.25 148.896 48.3958 150.062 48.6875C151.229 48.9792 152.229 49.3958 153.062 49.9375C153.938 50.4792 154.625 51.1042 155.125 51.8125C155.625 52.5208 155.875 53.2708 155.875 54.0625C155.875 57.4375 156.479 60.6667 157.688 63.75C158.938 66.8333 160.604 69.5417 162.688 71.875C164.771 74.2083 167.188 76.0625 169.938 77.4375C172.688 78.8125 175.583 79.5 178.625 79.5C181.333 79.5 183.417 78.5 184.875 76.5C186.375 74.4583 187.125 71.5417 187.125 67.75C187.125 62.9583 186.729 57.875 185.938 52.5C185.146 47.0833 183.958 41.1875 182.375 34.8125C181.75 32.5625 180.5 31.375 178.625 31.25C173.625 31 168.771 30.6458 164.062 30.1875C159.354 29.7292 154.792 29.1458 150.375 28.4375ZM214.125 58.25C214.125 57.5417 214.208 56.75 214.375 55.875C214.542 55 214.625 54.0417 214.625 53C214.625 52.2917 214.312 51.75 213.688 51.375C213.104 51 212.438 50.5833 211.688 50.125C210.938 49.6667 210.25 49.0833 209.625 48.375C209.042 47.6667 208.75 46.6458 208.75 45.3125C208.75 44.3542 209 43.3958 209.5 42.4375C210.042 41.4792 210.812 40.6042 211.812 39.8125C214.271 37.9792 216.812 36.3333 219.438 34.875C222.104 33.4167 224.75 32.1875 227.375 31.1875C230.042 30.1875 232.667 29.4167 235.25 28.875C237.833 28.3333 240.312 28.0625 242.688 28.0625C246.688 28.0625 250.438 28.8125 253.938 30.3125C257.479 31.7708 260.542 33.7917 263.125 36.375C265.75 38.9167 267.812 41.9167 269.312 45.375C270.854 48.7917 271.625 52.4583 271.625 56.375C271.625 60.2083 270.812 63.8542 269.188 67.3125C267.604 70.7292 265.458 73.7292 262.75 76.3125C260.042 78.8958 256.854 80.9375 253.188 82.4375C249.562 83.9792 245.729 84.75 241.688 84.75C237.729 84.75 234.062 84.0833 230.688 82.75C227.312 81.4167 224.396 79.5833 221.938 77.25C219.479 74.875 217.562 72.0833 216.188 68.875C214.812 65.625 214.125 62.0833 214.125 58.25ZM243.062 73.5C244.812 73.5 246.625 73.1458 248.5 72.4375C250.375 71.7292 252.083 70.7083 253.625 69.375C255.208 68 256.5 66.3333 257.5 64.375C258.542 62.4167 259.062 60.2083 259.062 57.75C259.062 55.25 258.604 52.9167 257.688 50.75C256.771 48.5833 255.5 46.7083 253.875 45.125C252.292 43.5 250.396 42.2292 248.188 41.3125C246.021 40.3958 243.667 39.9375 241.125 39.9375C236.5 39.9375 232.958 41.1458 230.5 43.5625C228.042 45.9375 226.812 49.6042 226.812 54.5625C226.812 57.2708 227.208 59.7917 228 62.125C228.833 64.4167 229.979 66.4167 231.438 68.125C232.896 69.7917 234.604 71.1042 236.562 72.0625C238.562 73.0208 240.729 73.5 243.062 73.5ZM289.188 15.25C287.979 15.25 286.833 15.0833 285.75 14.75C284.708 14.375 283.792 13.875 283 13.25C282.25 12.5833 281.646 11.8125 281.188 10.9375C280.729 10.0625 280.5 9.10417 280.5 8.0625C280.5 6.3125 281.188 4.89583 282.562 3.8125C283.979 2.72917 285.854 2.1875 288.188 2.1875C289.271 2.1875 290.312 2.39583 291.312 2.8125C292.312 3.1875 293.188 3.70833 293.938 4.375C294.729 5.04167 295.354 5.83333 295.812 6.75C296.271 7.625 296.5 8.54167 296.5 9.5C296.5 11.2917 295.833 12.7083 294.5 13.75C293.208 14.75 291.438 15.25 289.188 15.25ZM280.625 34.3125C280.625 32.8542 281.25 31.6667 282.5 30.75C283.792 29.7917 285.479 29.3125 287.562 29.3125C291.312 29.3125 293.312 30.6042 293.562 33.1875C293.729 34.9792 293.896 37 294.062 39.25C294.271 41.5 294.458 43.8958 294.625 46.4375C294.833 48.9375 295 51.5417 295.125 54.25C295.292 56.9167 295.438 59.5625 295.562 62.1875C295.688 64.7708 295.792 67.2708 295.875 69.6875C295.958 72.1042 296 74.3125 296 76.3125C296 78.3958 295.25 79.9583 293.75 81C292.292 82.0417 290.146 82.5625 287.312 82.5625C286.021 82.5625 285 82.25 284.25 81.625C283.542 81.0417 283.188 80.1667 283.188 79C283.188 73.25 283.042 67.875 282.75 62.875C282.5 57.8333 282.208 53.3542 281.875 49.4375C281.583 45.5208 281.292 42.2708 281 39.6875C280.75 37.0625 280.625 35.2708 280.625 34.3125ZM308.625 28.5625C308.625 27.9375 308.896 27.3333 309.438 26.75C309.979 26.125 310.688 25.5833 311.562 25.125C312.438 24.625 313.417 24.2292 314.5 23.9375C315.625 23.6042 316.75 23.4375 317.875 23.4375C318.5 23.4375 319.021 23.6042 319.438 23.9375C319.896 24.2708 320.292 24.9167 320.625 25.875C320.958 26.7917 321.25 28.1042 321.5 29.8125C321.792 31.4792 322.062 33.6667 322.312 36.375C322.479 37.2083 322.625 37.8542 322.75 38.3125C322.917 38.7292 323.125 38.9375 323.375 38.9375C323.75 38.9375 324.125 38.2917 324.5 37C327.542 28.2083 331.938 23.8125 337.688 23.8125C340.354 23.8125 342.771 24.6458 344.938 26.3125C347.146 27.9792 349.188 30.7083 351.062 34.5C352.979 38.25 354.792 43.2083 356.5 49.375C358.208 55.5 359.917 63.0625 361.625 72.0625C361.708 72.5208 361.771 72.9375 361.812 73.3125C361.854 73.6875 361.875 74.0417 361.875 74.375C361.875 75.3333 361.646 76.1667 361.188 76.875C360.771 77.5417 360.208 78.1042 359.5 78.5625C358.792 78.9792 358 79.2917 357.125 79.5C356.25 79.75 355.375 79.875 354.5 79.875C352.75 79.875 351.479 79.6875 350.688 79.3125C349.938 78.9375 349.458 78.2292 349.25 77.1875C348.042 70.8542 346.854 65.2292 345.688 60.3125C344.562 55.3958 343.438 51.2708 342.312 47.9375C341.229 44.5625 340.146 42 339.062 40.25C337.979 38.5 336.896 37.625 335.812 37.625C334.729 37.625 333.708 38.3125 332.75 39.6875C331.833 41.0208 330.938 43.125 330.062 46C329.188 48.875 328.333 52.5208 327.5 56.9375C326.708 61.3542 325.938 66.625 325.188 72.75C324.979 74.4167 324.146 75.75 322.688 76.75C321.229 77.75 319.375 78.25 317.125 78.25C315.625 78.25 314.479 77.9375 313.688 77.3125C312.896 76.6875 312.458 75.8333 312.375 74.75C312 66.0833 311.583 58.9583 311.125 53.375C310.708 47.75 310.312 43.25 309.938 39.875C309.562 36.4583 309.25 33.9167 309 32.25C308.75 30.5833 308.625 29.3542 308.625 28.5625ZM404.625 6.8125C404.625 4.60417 405.25 3.0625 406.5 2.1875C407.75 1.27083 409.812 0.8125 412.688 0.8125C413.729 0.8125 414.604 0.916667 415.312 1.125C416.062 1.29167 416.688 1.625 417.188 2.125C417.729 2.625 418.146 3.29167 418.438 4.125C418.771 4.91667 419.042 5.9375 419.25 7.1875C419.75 11.0625 420.292 15.0625 420.875 19.1875C421.5 23.3125 422.146 27.4583 422.812 31.625C423.062 33.5 424.042 34.4375 425.75 34.4375C426.208 34.4375 426.958 34.3958 428 34.3125C429.083 34.1875 430.354 34.0625 431.812 33.9375C433.271 33.7708 434.833 33.6042 436.5 33.4375C438.208 33.2708 439.896 33.125 441.562 33C443.271 32.8333 444.875 32.7083 446.375 32.625C447.917 32.5 449.271 32.4375 450.438 32.4375C451.354 32.4375 452.083 32.625 452.625 33C453.167 33.3333 453.583 33.7917 453.875 34.375C454.208 34.9167 454.417 35.5417 454.5 36.25C454.625 36.9167 454.688 37.6042 454.688 38.3125C454.688 38.9375 454.562 39.5833 454.312 40.25C454.104 40.9167 453.792 41.5208 453.375 42.0625C453 42.5625 452.521 42.9792 451.938 43.3125C451.354 43.6458 450.688 43.8125 449.938 43.8125C446.312 43.8125 442.646 43.9375 438.938 44.1875C435.271 44.3958 431.604 44.6875 427.938 45.0625C426.062 45.3125 425.125 46.25 425.125 47.875C425.125 48 425.146 48.1667 425.188 48.375C425.229 48.5417 425.25 48.6875 425.25 48.8125C425.75 52.4375 426.208 55.8333 426.625 59C427.083 62.1667 427.458 65 427.75 67.5C428.083 69.9583 428.333 72.0208 428.5 73.6875C428.708 75.3125 428.812 76.3958 428.812 76.9375C428.812 78.4375 428.667 79.6875 428.375 80.6875C428.083 81.7292 427.604 82.5625 426.938 83.1875C426.271 83.8542 425.375 84.3125 424.25 84.5625C423.167 84.8542 421.792 85 420.125 85C418.542 85 417.375 84.625 416.625 83.875C415.875 83.125 415.458 81.9792 415.375 80.4375C415.125 75.5208 414.729 70.5833 414.188 65.625C413.646 60.625 413.021 55.6458 412.312 50.6875C411.938 48.8958 411 48 409.5 48C409.375 48 409.229 48.0208 409.062 48.0625C408.896 48.1042 408.75 48.125 408.625 48.125C406.042 48.7083 403.604 49.2917 401.312 49.875C399.021 50.4583 396.875 51.0833 394.875 51.75C393.75 52.125 392.75 52.3958 391.875 52.5625C391 52.6875 390.208 52.75 389.5 52.75C388.542 52.75 387.833 52.3333 387.375 51.5C386.917 50.625 386.688 49.5417 386.688 48.25C386.688 47.7917 386.729 47.2708 386.812 46.6875C386.896 46.0625 387.062 45.4583 387.312 44.875C387.521 44.25 387.854 43.6875 388.312 43.1875C388.729 42.6458 389.312 42.2083 390.062 41.875C391.812 41.1667 394.146 40.4375 397.062 39.6875C399.979 38.8958 403.271 38.1667 406.938 37.5C407.771 37.2917 408.417 36.9583 408.875 36.5C409.375 36 409.625 35.2708 409.625 34.3125C409.625 34.1042 409.625 33.8958 409.625 33.6875C409.625 33.4375 409.583 33.1875 409.5 32.9375C408.833 29.1042 408.188 25.625 407.562 22.5C406.979 19.3333 406.458 16.625 406 14.375C405.583 12.125 405.25 10.3542 405 9.0625C404.75 7.77083 404.625 7.02083 404.625 6.8125ZM449.312 18.8125C449.312 14.3125 452.229 12.0625 458.062 12.0625C459.062 12.0625 459.938 12.3333 460.688 12.875C461.438 13.4167 461.875 14.1667 462 15.125C462.375 17.6667 462.708 20.1875 463 22.6875C463.292 25.1875 463.562 28 463.812 31.125C464.104 34.2083 464.375 37.7917 464.625 41.875C464.917 45.9167 465.229 50.75 465.562 56.375C465.562 56.9583 465.646 57.375 465.812 57.625C466.021 57.875 466.25 58 466.5 58C466.875 58 467.25 57.625 467.625 56.875C469.042 53.75 470.625 50.9583 472.375 48.5C474.125 46 476 43.8958 478 42.1875C480 40.4375 482.104 39.125 484.312 38.25C486.562 37.3333 488.854 36.875 491.188 36.875C494.271 36.875 497.062 37.75 499.562 39.5C502.062 41.25 504.188 43.7292 505.938 46.9375C507.688 50.1458 509.042 54.0417 510 58.625C510.958 63.1667 511.438 68.25 511.438 73.875C511.438 75.4167 511.312 76.6875 511.062 77.6875C510.854 78.6458 510.479 79.4167 509.938 80C509.396 80.5833 508.646 80.9792 507.688 81.1875C506.729 81.4375 505.542 81.5625 504.125 81.5625C502.167 81.5625 500.75 81.1875 499.875 80.4375C499.042 79.6875 498.625 78.5208 498.625 76.9375C498.625 73.0208 498.354 69.3333 497.812 65.875C497.312 62.375 496.604 59.3125 495.688 56.6875C494.771 54.0625 493.688 51.9792 492.438 50.4375C491.229 48.8958 489.917 48.125 488.5 48.125C485.292 48.125 482.083 50.7292 478.875 55.9375C475.708 61.1458 472.396 69 468.938 79.5C468.604 80.4583 468.229 81.25 467.812 81.875C467.396 82.5 466.896 83 466.312 83.375C465.771 83.75 465.104 84 464.312 84.125C463.521 84.2917 462.583 84.375 461.5 84.375C459.292 84.375 457.708 83.9583 456.75 83.125C455.833 82.2917 455.333 80.9167 455.25 79C455 71.75 454.542 64.8333 453.875 58.25C453.25 51.625 452.583 45.6458 451.875 40.3125C451.208 34.9375 450.604 30.3958 450.062 26.6875C449.562 22.9375 449.312 20.3125 449.312 18.8125ZM573 65.3125C574.208 64.2708 575.396 63.75 576.562 63.75C577.229 63.75 577.833 63.9167 578.375 64.25C578.917 64.5833 579.521 65.1042 580.188 65.8125C580.812 66.7708 581.25 67.5625 581.5 68.1875C581.792 68.7708 581.938 69.3542 581.938 69.9375C581.938 71.1875 581.312 72.375 580.062 73.5C578.062 75.1667 575.896 76.6667 573.562 78C571.229 79.2917 568.792 80.3958 566.25 81.3125C563.708 82.2292 561.083 82.9167 558.375 83.375C555.667 83.875 552.979 84.125 550.312 84.125C546.938 84.125 543.771 83.6875 540.812 82.8125C537.854 81.9792 535.208 80.7708 532.875 79.1875C530.583 77.6042 528.646 75.7083 527.062 73.5C525.479 71.25 524.354 68.7292 523.688 65.9375C523.312 64.7708 522.958 64.0208 522.625 63.6875C522.333 63.3125 521.833 63.125 521.125 63.125C519.583 63.125 518.396 62.75 517.562 62C516.729 61.25 516.312 60.1667 516.312 58.75C516.312 58.1667 516.354 57.7917 516.438 57.625L516.562 56.375C516.771 54.875 517.167 53.7917 517.75 53.125C518.375 52.4583 519.333 52.125 520.625 52.125H521.562C523.312 52.125 524.542 51.3125 525.25 49.6875C526.542 46.8125 528.188 44.1875 530.188 41.8125C532.188 39.4375 534.438 37.4167 536.938 35.75C539.438 34.0417 542.104 32.7292 544.938 31.8125C547.812 30.8542 550.729 30.375 553.688 30.375C556.771 30.375 559.646 30.8333 562.312 31.75C565.021 32.625 567.375 33.8542 569.375 35.4375C571.375 37.0208 572.938 38.875 574.062 41C575.229 43.125 575.812 45.4167 575.812 47.875C575.812 49.5833 575.479 51.1458 574.812 52.5625C574.146 53.9792 573.188 55.2292 571.938 56.3125C570.688 57.3542 569.167 58.2083 567.375 58.875C565.625 59.5417 563.625 59.9792 561.375 60.1875L539.688 62.375C538.854 62.375 538.167 62.5833 537.625 63C537.125 63.4167 536.875 63.9792 536.875 64.6875C536.875 65.7708 537.271 66.8125 538.062 67.8125C538.896 68.8125 539.979 69.7083 541.312 70.5C542.688 71.25 544.25 71.8542 546 72.3125C547.792 72.7708 549.625 73 551.5 73C553.292 73 555.125 72.8333 557 72.5C558.917 72.125 560.792 71.6042 562.625 70.9375C564.5 70.2708 566.312 69.4792 568.062 68.5625C569.812 67.6042 571.458 66.5208 573 65.3125ZM559.062 49.1875C559.688 49.0625 560.229 48.7708 560.688 48.3125C561.146 47.8125 561.375 47.2083 561.375 46.5C561.375 45.875 561.146 45.2917 560.688 44.75C560.229 44.2083 559.604 43.7292 558.812 43.3125C558.021 42.8542 557.104 42.5 556.062 42.25C555.021 42 553.917 41.875 552.75 41.875C551.042 41.875 549.292 42.125 547.5 42.625C545.708 43.125 544.083 43.7917 542.625 44.625C541.167 45.4167 539.979 46.3125 539.062 47.3125C538.146 48.2708 537.688 49.2292 537.688 50.1875C537.688 51.1458 538.271 51.625 539.438 51.625C540.146 51.625 541.292 51.5417 542.875 51.375C544.458 51.2083 546.208 51.0208 548.125 50.8125C550.042 50.5625 551.979 50.2917 553.938 50C555.896 49.7083 557.604 49.4375 559.062 49.1875ZM41.8125 155.438C43.9792 155.438 46.0833 155.75 48.125 156.375C50.1667 157 51.9583 157.854 53.5 158.938C55.0833 159.979 56.3542 161.188 57.3125 162.562C58.2708 163.896 58.75 165.271 58.75 166.688C58.75 167.604 58.5625 168.5 58.1875 169.375C57.8125 170.208 57.3125 170.958 56.6875 171.625C56.0625 172.25 55.3542 172.771 54.5625 173.188C53.7708 173.562 52.9375 173.75 52.0625 173.75C51.1042 173.75 50.2292 173.396 49.4375 172.688C48.6458 171.938 47.7917 171.125 46.875 170.25C46 169.333 45 168.521 43.875 167.812C42.7917 167.062 41.4792 166.688 39.9375 166.688C38.4375 166.688 37.0833 167.042 35.875 167.75C34.6667 168.458 33.6458 169.458 32.8125 170.75C32.0208 172 31.3958 173.5 30.9375 175.25C30.5208 176.958 30.3125 178.833 30.3125 180.875C30.3125 186.708 31.4167 191.167 33.625 194.25C35.8333 197.292 39 198.812 43.125 198.812C45.0833 198.812 46.75 198.5 48.125 197.875C49.5417 197.25 50.7708 196.562 51.8125 195.812C52.8958 195.062 53.875 194.375 54.75 193.75C55.625 193.125 56.5208 192.812 57.4375 192.812C57.9375 192.812 58.4375 192.979 58.9375 193.312C59.4375 193.604 59.875 194 60.25 194.5C60.6667 194.958 61 195.479 61.25 196.062C61.5417 196.646 61.6875 197.229 61.6875 197.812C61.6875 199.188 61 200.604 59.625 202.062C58.2917 203.521 56.5625 204.854 54.4375 206.062C52.3125 207.229 49.9375 208.188 47.3125 208.938C44.7292 209.688 42.2083 210.062 39.75 210.062C36.4583 210.062 33.4375 209.417 30.6875 208.125C27.9375 206.875 25.5625 205.125 23.5625 202.875C21.5625 200.583 20 197.854 18.875 194.688C17.7917 191.521 17.25 188.021 17.25 184.188C17.25 180.021 17.8542 176.188 19.0625 172.688C20.3125 169.188 22.0208 166.167 24.1875 163.625C26.3958 161.042 29 159.042 32 157.625C35 156.167 38.2708 155.438 41.8125 155.438ZM64.0625 186.25C64.0625 185.542 64.1458 184.75 64.3125 183.875C64.4792 183 64.5625 182.042 64.5625 181C64.5625 180.292 64.25 179.75 63.625 179.375C63.0417 179 62.375 178.583 61.625 178.125C60.875 177.667 60.1875 177.083 59.5625 176.375C58.9792 175.667 58.6875 174.646 58.6875 173.312C58.6875 172.354 58.9375 171.396 59.4375 170.438C59.9792 169.479 60.75 168.604 61.75 167.812C64.2083 165.979 66.75 164.333 69.375 162.875C72.0417 161.417 74.6875 160.188 77.3125 159.188C79.9792 158.188 82.6042 157.417 85.1875 156.875C87.7708 156.333 90.25 156.062 92.625 156.062C96.625 156.062 100.375 156.812 103.875 158.312C107.417 159.771 110.479 161.792 113.062 164.375C115.688 166.917 117.75 169.917 119.25 173.375C120.792 176.792 121.562 180.458 121.562 184.375C121.562 188.208 120.75 191.854 119.125 195.312C117.542 198.729 115.396 201.729 112.688 204.312C109.979 206.896 106.792 208.938 103.125 210.438C99.5 211.979 95.6667 212.75 91.625 212.75C87.6667 212.75 84 212.083 80.625 210.75C77.25 209.417 74.3333 207.583 71.875 205.25C69.4167 202.875 67.5 200.083 66.125 196.875C64.75 193.625 64.0625 190.083 64.0625 186.25ZM93 201.5C94.75 201.5 96.5625 201.146 98.4375 200.438C100.312 199.729 102.021 198.708 103.562 197.375C105.146 196 106.438 194.333 107.438 192.375C108.479 190.417 109 188.208 109 185.75C109 183.25 108.542 180.917 107.625 178.75C106.708 176.583 105.438 174.708 103.812 173.125C102.229 171.5 100.333 170.229 98.125 169.312C95.9583 168.396 93.6042 167.938 91.0625 167.938C86.4375 167.938 82.8958 169.146 80.4375 171.562C77.9792 173.938 76.75 177.604 76.75 182.562C76.75 185.271 77.1458 187.792 77.9375 190.125C78.7708 192.417 79.9167 194.417 81.375 196.125C82.8333 197.792 84.5417 199.104 86.5 200.062C88.5 201.021 90.6667 201.5 93 201.5ZM135.312 209.688C135.021 204.146 134.542 199.042 133.875 194.375C133.25 189.667 132.583 185.562 131.875 182.062C131.208 178.562 130.604 175.729 130.062 173.562C129.562 171.396 129.312 170.042 129.312 169.5C129.312 168.708 129.604 167.938 130.188 167.188C130.812 166.438 131.583 165.792 132.5 165.25C133.417 164.667 134.396 164.208 135.438 163.875C136.521 163.542 137.5 163.375 138.375 163.375C139.083 163.375 139.688 163.5 140.188 163.75C140.729 164 141.104 164.417 141.312 165C141.521 165.708 141.708 166.458 141.875 167.25C142.083 168 142.292 168.917 142.5 170C142.75 171.542 143.083 172.312 143.5 172.312C143.958 172.312 144.479 171.625 145.062 170.25C145.896 168.333 146.792 166.75 147.75 165.5C148.708 164.25 149.729 163.271 150.812 162.562C151.938 161.812 153.083 161.292 154.25 161C155.458 160.708 156.708 160.562 158 160.562C161.917 160.562 165.229 162.104 167.938 165.188C170.688 168.271 172.833 172.729 174.375 178.562C174.583 179.229 174.771 179.667 174.938 179.875C175.104 180.042 175.292 180.125 175.5 180.125C175.708 180.125 175.917 180.042 176.125 179.875C176.375 179.667 176.604 179.271 176.812 178.688C177.812 175.979 178.979 173.688 180.312 171.812C181.646 169.896 183.021 168.354 184.438 167.188C185.896 165.979 187.375 165.104 188.875 164.562C190.375 164.021 191.812 163.75 193.188 163.75C195.729 163.75 198.021 164.688 200.062 166.562C202.146 168.396 203.979 171.25 205.562 175.125C207.188 178.958 208.583 183.833 209.75 189.75C210.958 195.625 211.958 202.604 212.75 210.688C212.75 212.938 212.062 214.5 210.688 215.375C209.312 216.292 207.438 216.75 205.062 216.75C203.521 216.75 202.312 216.417 201.438 215.75C200.562 215.083 200.062 214.208 199.938 213.125C199.396 207.333 198.792 202.188 198.125 197.688C197.5 193.146 196.812 189.333 196.062 186.25C195.312 183.125 194.479 180.75 193.562 179.125C192.688 177.5 191.708 176.688 190.625 176.688C190.083 176.688 189.396 177.083 188.562 177.875C187.771 178.667 186.917 180.125 186 182.25C185.083 184.333 184.125 187.208 183.125 190.875C182.125 194.5 181.167 199.146 180.25 204.812C180 206.396 179.229 207.604 177.938 208.438C176.688 209.271 175.146 209.688 173.312 209.688C171.188 209.688 169.708 209.354 168.875 208.688C168.083 208.021 167.646 206.896 167.562 205.312C167.396 202.562 167.104 199.833 166.688 197.125C166.312 194.375 165.833 191.771 165.25 189.312C164.667 186.812 164.021 184.521 163.312 182.438C162.604 180.312 161.854 178.479 161.062 176.938C160.271 175.354 159.458 174.125 158.625 173.25C157.792 172.375 156.979 171.938 156.188 171.938C155.146 171.938 154.125 172.667 153.125 174.125C152.167 175.583 151.292 177.646 150.5 180.312C149.75 182.979 149.146 186.188 148.688 189.938C148.229 193.688 148 197.875 148 202.5C148 203.292 148.021 204.083 148.062 204.875C148.104 205.625 148.125 206.417 148.125 207.25C148.125 208.5 147.917 209.521 147.5 210.312C147.125 211.104 146.562 211.729 145.812 212.188C145.104 212.646 144.271 212.958 143.312 213.125C142.354 213.292 141.312 213.375 140.188 213.375C139.146 213.375 138.312 213.292 137.688 213.125C137.062 213 136.583 212.792 136.25 212.5C135.917 212.208 135.688 211.812 135.562 211.312C135.438 210.854 135.354 210.312 135.312 209.688ZM226.188 209.688C225.896 204.146 225.417 199.042 224.75 194.375C224.125 189.667 223.458 185.562 222.75 182.062C222.083 178.562 221.479 175.729 220.938 173.562C220.438 171.396 220.188 170.042 220.188 169.5C220.188 168.708 220.479 167.938 221.062 167.188C221.688 166.438 222.458 165.792 223.375 165.25C224.292 164.667 225.271 164.208 226.312 163.875C227.396 163.542 228.375 163.375 229.25 163.375C229.958 163.375 230.562 163.5 231.062 163.75C231.604 164 231.979 164.417 232.188 165C232.396 165.708 232.583 166.458 232.75 167.25C232.958 168 233.167 168.917 233.375 170C233.625 171.542 233.958 172.312 234.375 172.312C234.833 172.312 235.354 171.625 235.938 170.25C236.771 168.333 237.667 166.75 238.625 165.5C239.583 164.25 240.604 163.271 241.688 162.562C242.812 161.812 243.958 161.292 245.125 161C246.333 160.708 247.583 160.562 248.875 160.562C252.792 160.562 256.104 162.104 258.812 165.188C261.562 168.271 263.708 172.729 265.25 178.562C265.458 179.229 265.646 179.667 265.812 179.875C265.979 180.042 266.167 180.125 266.375 180.125C266.583 180.125 266.792 180.042 267 179.875C267.25 179.667 267.479 179.271 267.688 178.688C268.688 175.979 269.854 173.688 271.188 171.812C272.521 169.896 273.896 168.354 275.312 167.188C276.771 165.979 278.25 165.104 279.75 164.562C281.25 164.021 282.688 163.75 284.062 163.75C286.604 163.75 288.896 164.688 290.938 166.562C293.021 168.396 294.854 171.25 296.438 175.125C298.062 178.958 299.458 183.833 300.625 189.75C301.833 195.625 302.833 202.604 303.625 210.688C303.625 212.938 302.938 214.5 301.562 215.375C300.188 216.292 298.312 216.75 295.938 216.75C294.396 216.75 293.188 216.417 292.312 215.75C291.438 215.083 290.938 214.208 290.812 213.125C290.271 207.333 289.667 202.188 289 197.688C288.375 193.146 287.688 189.333 286.938 186.25C286.188 183.125 285.354 180.75 284.438 179.125C283.562 177.5 282.583 176.688 281.5 176.688C280.958 176.688 280.271 177.083 279.438 177.875C278.646 178.667 277.792 180.125 276.875 182.25C275.958 184.333 275 187.208 274 190.875C273 194.5 272.042 199.146 271.125 204.812C270.875 206.396 270.104 207.604 268.812 208.438C267.562 209.271 266.021 209.688 264.188 209.688C262.062 209.688 260.583 209.354 259.75 208.688C258.958 208.021 258.521 206.896 258.438 205.312C258.271 202.562 257.979 199.833 257.562 197.125C257.188 194.375 256.708 191.771 256.125 189.312C255.542 186.812 254.896 184.521 254.188 182.438C253.479 180.312 252.729 178.479 251.938 176.938C251.146 175.354 250.333 174.125 249.5 173.25C248.667 172.375 247.854 171.938 247.062 171.938C246.021 171.938 245 172.667 244 174.125C243.042 175.583 242.167 177.646 241.375 180.312C240.625 182.979 240.021 186.188 239.562 189.938C239.104 193.688 238.875 197.875 238.875 202.5C238.875 203.292 238.896 204.083 238.938 204.875C238.979 205.625 239 206.417 239 207.25C239 208.5 238.792 209.521 238.375 210.312C238 211.104 237.438 211.729 236.688 212.188C235.979 212.646 235.146 212.958 234.188 213.125C233.229 213.292 232.188 213.375 231.062 213.375C230.021 213.375 229.188 213.292 228.562 213.125C227.938 213 227.458 212.792 227.125 212.5C226.792 212.208 226.562 211.812 226.438 211.312C226.312 210.854 226.229 210.312 226.188 209.688ZM324.625 184.875C324.625 190.458 325.479 194.771 327.188 197.812C328.896 200.854 331.375 202.375 334.625 202.375C336.667 202.375 338.542 201.771 340.25 200.562C342 199.354 343.5 197.667 344.75 195.5C346 193.333 346.958 190.771 347.625 187.812C348.333 184.812 348.688 181.562 348.688 178.062C348.688 175.938 348.604 174.104 348.438 172.562C348.271 170.979 348.083 169.583 347.875 168.375C347.708 167.125 347.542 166.021 347.375 165.062C347.208 164.104 347.125 163.188 347.125 162.312C347.125 160.979 347.688 160.021 348.812 159.438C349.938 158.812 351.729 158.5 354.188 158.5C357.312 158.5 359.729 159.208 361.438 160.625C363.188 162.042 364.062 164.104 364.062 166.812C364.062 174.188 363.333 180.812 361.875 186.688C360.458 192.562 358.396 197.562 355.688 201.688C353.021 205.771 349.771 208.917 345.938 211.125C342.104 213.333 337.812 214.438 333.062 214.438C329.688 214.438 326.562 213.729 323.688 212.312C320.854 210.938 318.396 209 316.312 206.5C314.271 203.958 312.667 200.958 311.5 197.5C310.333 194 309.75 190.167 309.75 186C309.75 184.417 309.792 182.729 309.875 180.938C309.958 179.146 310.083 177.229 310.25 175.188C310.417 173.104 310.625 170.854 310.875 168.438C311.167 166.021 311.479 163.396 311.812 160.562C311.938 159.354 312.5 158.396 313.5 157.688C314.542 156.938 315.854 156.562 317.438 156.562C318.854 156.562 320.188 156.708 321.438 157C322.688 157.292 323.75 157.688 324.625 158.188C325.542 158.688 326.25 159.271 326.75 159.938C327.292 160.604 327.562 161.312 327.562 162.062C327.562 162.812 327.396 164 327.062 165.625C326.771 167.208 326.438 169.042 326.062 171.125C325.729 173.167 325.396 175.396 325.062 177.812C324.771 180.188 324.625 182.542 324.625 184.875ZM372.688 156.562C372.688 155.938 372.958 155.333 373.5 154.75C374.042 154.125 374.75 153.583 375.625 153.125C376.5 152.625 377.479 152.229 378.562 151.938C379.688 151.604 380.812 151.438 381.938 151.438C382.562 151.438 383.083 151.604 383.5 151.938C383.958 152.271 384.354 152.917 384.688 153.875C385.021 154.792 385.312 156.104 385.562 157.812C385.854 159.479 386.125 161.667 386.375 164.375C386.542 165.208 386.688 165.854 386.812 166.312C386.979 166.729 387.188 166.938 387.438 166.938C387.812 166.938 388.188 166.292 388.562 165C391.604 156.208 396 151.812 401.75 151.812C404.417 151.812 406.833 152.646 409 154.312C411.208 155.979 413.25 158.708 415.125 162.5C417.042 166.25 418.854 171.208 420.562 177.375C422.271 183.5 423.979 191.062 425.688 200.062C425.771 200.521 425.833 200.938 425.875 201.312C425.917 201.688 425.938 202.042 425.938 202.375C425.938 203.333 425.708 204.167 425.25 204.875C424.833 205.542 424.271 206.104 423.562 206.562C422.854 206.979 422.062 207.292 421.188 207.5C420.312 207.75 419.438 207.875 418.562 207.875C416.812 207.875 415.542 207.688 414.75 207.312C414 206.938 413.521 206.229 413.312 205.188C412.104 198.854 410.917 193.229 409.75 188.312C408.625 183.396 407.5 179.271 406.375 175.938C405.292 172.562 404.208 170 403.125 168.25C402.042 166.5 400.958 165.625 399.875 165.625C398.792 165.625 397.771 166.312 396.812 167.688C395.896 169.021 395 171.125 394.125 174C393.25 176.875 392.396 180.521 391.562 184.938C390.771 189.354 390 194.625 389.25 200.75C389.042 202.417 388.208 203.75 386.75 204.75C385.292 205.75 383.438 206.25 381.188 206.25C379.688 206.25 378.542 205.938 377.75 205.312C376.958 204.688 376.521 203.833 376.438 202.75C376.062 194.083 375.646 186.958 375.188 181.375C374.771 175.75 374.375 171.25 374 167.875C373.625 164.458 373.312 161.917 373.062 160.25C372.812 158.583 372.688 157.354 372.688 156.562ZM441.875 143.25C440.667 143.25 439.521 143.083 438.438 142.75C437.396 142.375 436.479 141.875 435.688 141.25C434.938 140.583 434.333 139.812 433.875 138.938C433.417 138.062 433.188 137.104 433.188 136.062C433.188 134.312 433.875 132.896 435.25 131.812C436.667 130.729 438.542 130.188 440.875 130.188C441.958 130.188 443 130.396 444 130.812C445 131.188 445.875 131.708 446.625 132.375C447.417 133.042 448.042 133.833 448.5 134.75C448.958 135.625 449.188 136.542 449.188 137.5C449.188 139.292 448.521 140.708 447.188 141.75C445.896 142.75 444.125 143.25 441.875 143.25ZM433.312 162.312C433.312 160.854 433.938 159.667 435.188 158.75C436.479 157.792 438.167 157.312 440.25 157.312C444 157.312 446 158.604 446.25 161.188C446.417 162.979 446.583 165 446.75 167.25C446.958 169.5 447.146 171.896 447.312 174.438C447.521 176.938 447.688 179.542 447.812 182.25C447.979 184.917 448.125 187.562 448.25 190.188C448.375 192.771 448.479 195.271 448.562 197.688C448.646 200.104 448.688 202.312 448.688 204.312C448.688 206.396 447.938 207.958 446.438 209C444.979 210.042 442.833 210.562 440 210.562C438.708 210.562 437.688 210.25 436.938 209.625C436.229 209.042 435.875 208.167 435.875 207C435.875 201.25 435.729 195.875 435.438 190.875C435.188 185.833 434.896 181.354 434.562 177.438C434.271 173.521 433.979 170.271 433.688 167.688C433.438 165.062 433.312 163.271 433.312 162.312ZM466.062 134.812C466.062 132.604 466.688 131.062 467.938 130.188C469.188 129.271 471.25 128.812 474.125 128.812C475.167 128.812 476.042 128.917 476.75 129.125C477.5 129.292 478.125 129.625 478.625 130.125C479.167 130.625 479.583 131.292 479.875 132.125C480.208 132.917 480.479 133.938 480.688 135.188C481.188 139.062 481.729 143.062 482.312 147.188C482.938 151.312 483.583 155.458 484.25 159.625C484.5 161.5 485.479 162.438 487.188 162.438C487.646 162.438 488.396 162.396 489.438 162.312C490.521 162.188 491.792 162.062 493.25 161.938C494.708 161.771 496.271 161.604 497.938 161.438C499.646 161.271 501.333 161.125 503 161C504.708 160.833 506.312 160.708 507.812 160.625C509.354 160.5 510.708 160.438 511.875 160.438C512.792 160.438 513.521 160.625 514.062 161C514.604 161.333 515.021 161.792 515.312 162.375C515.646 162.917 515.854 163.542 515.938 164.25C516.062 164.917 516.125 165.604 516.125 166.312C516.125 166.938 516 167.583 515.75 168.25C515.542 168.917 515.229 169.521 514.812 170.062C514.438 170.562 513.958 170.979 513.375 171.312C512.792 171.646 512.125 171.812 511.375 171.812C507.75 171.812 504.083 171.938 500.375 172.188C496.708 172.396 493.042 172.688 489.375 173.062C487.5 173.312 486.562 174.25 486.562 175.875C486.562 176 486.583 176.167 486.625 176.375C486.667 176.542 486.688 176.688 486.688 176.812C487.188 180.438 487.646 183.833 488.062 187C488.521 190.167 488.896 193 489.188 195.5C489.521 197.958 489.771 200.021 489.938 201.688C490.146 203.312 490.25 204.396 490.25 204.938C490.25 206.438 490.104 207.688 489.812 208.688C489.521 209.729 489.042 210.562 488.375 211.188C487.708 211.854 486.812 212.312 485.688 212.562C484.604 212.854 483.229 213 481.562 213C479.979 213 478.812 212.625 478.062 211.875C477.312 211.125 476.896 209.979 476.812 208.438C476.562 203.521 476.167 198.583 475.625 193.625C475.083 188.625 474.458 183.646 473.75 178.688C473.375 176.896 472.438 176 470.938 176C470.812 176 470.667 176.021 470.5 176.062C470.333 176.104 470.188 176.125 470.062 176.125C467.479 176.708 465.042 177.292 462.75 177.875C460.458 178.458 458.312 179.083 456.312 179.75C455.188 180.125 454.188 180.396 453.312 180.562C452.438 180.688 451.646 180.75 450.938 180.75C449.979 180.75 449.271 180.333 448.812 179.5C448.354 178.625 448.125 177.542 448.125 176.25C448.125 175.792 448.167 175.271 448.25 174.688C448.333 174.062 448.5 173.458 448.75 172.875C448.958 172.25 449.292 171.688 449.75 171.188C450.167 170.646 450.75 170.208 451.5 169.875C453.25 169.167 455.583 168.438 458.5 167.688C461.417 166.896 464.708 166.167 468.375 165.5C469.208 165.292 469.854 164.958 470.312 164.5C470.812 164 471.062 163.271 471.062 162.312C471.062 162.104 471.062 161.896 471.062 161.688C471.062 161.438 471.021 161.188 470.938 160.938C470.271 157.104 469.625 153.625 469 150.5C468.417 147.333 467.896 144.625 467.438 142.375C467.021 140.125 466.688 138.354 466.438 137.062C466.188 135.771 466.062 135.021 466.062 134.812ZM538.562 208.688C536.062 208.688 533.562 208.083 531.062 206.875C528.562 205.625 526.167 203.938 523.875 201.812C521.583 199.688 519.458 197.188 517.5 194.312C515.542 191.396 513.833 188.271 512.375 184.938C510.917 181.562 509.771 178.042 508.938 174.375C508.104 170.708 507.688 167.042 507.688 163.375C507.688 160.542 508.271 158.521 509.438 157.312C510.604 156.062 512.5 155.438 515.125 155.438C518.417 155.438 520.25 156.792 520.625 159.5C521.375 165.25 522.417 170.438 523.75 175.062C525.083 179.688 526.646 183.625 528.438 186.875C530.271 190.125 532.292 192.625 534.5 194.375C536.75 196.125 539.125 197 541.625 197C543.417 197 545.104 196.562 546.688 195.688C548.271 194.771 549.646 193.5 550.812 191.875C551.229 191.25 551.5 190.646 551.625 190.062C551.792 189.479 551.917 188.812 552 188.062C552.208 185.104 552.438 182.208 552.688 179.375C552.979 176.5 553.25 173.625 553.5 170.75C553.583 169.5 553.75 168.479 554 167.688C554.25 166.896 554.625 166.271 555.125 165.812C555.625 165.354 556.271 165.042 557.062 164.875C557.896 164.708 558.938 164.625 560.188 164.625C561.604 164.625 562.812 164.833 563.812 165.25C564.812 165.625 565.625 166.271 566.25 167.188C566.875 168.062 567.312 169.229 567.562 170.688C567.854 172.104 568 173.875 568 176C568 177.833 567.854 179.438 567.562 180.812C567.312 182.146 567 183.417 566.625 184.625C566.292 185.792 565.958 186.958 565.625 188.125C565.333 189.25 565.146 190.5 565.062 191.875C564.854 195.333 564.667 198.333 564.5 200.875C564.333 203.375 564.188 205.521 564.062 207.312C563.979 209.104 563.896 210.646 563.812 211.938C563.771 213.229 563.729 214.375 563.688 215.375C563.646 216.417 563.625 217.396 563.625 218.312C563.625 219.229 563.625 220.229 563.625 221.312C563.625 223.271 563.708 225.396 563.875 227.688C564.042 230.021 564.208 232.25 564.375 234.375C564.583 236.5 564.771 238.375 564.938 240C565.104 241.625 565.188 242.75 565.188 243.375C565.188 244.167 564.938 244.917 564.438 245.625C563.938 246.333 563.271 246.958 562.438 247.5C561.604 248.042 560.625 248.458 559.5 248.75C558.375 249.083 557.188 249.25 555.938 249.25C554.854 249.25 553.979 248.875 553.312 248.125C552.688 247.417 552.333 246.458 552.25 245.25C552.125 243.667 552.021 241.729 551.938 239.438C551.854 237.188 551.771 234.771 551.688 232.188C551.604 229.646 551.542 227.042 551.5 224.375C551.5 221.75 551.479 219.292 551.438 217C551.396 214.75 551.375 212.771 551.375 211.062C551.375 209.354 551.375 208.125 551.375 207.375C551.375 206.625 551.292 206.104 551.125 205.812C550.958 205.479 550.646 205.312 550.188 205.312C549.938 205.312 549.604 205.396 549.188 205.562C548.771 205.688 548.292 205.917 547.75 206.25C546.292 207.125 544.812 207.75 543.312 208.125C541.812 208.5 540.229 208.688 538.562 208.688ZM606.688 186.25C606.688 185.542 606.771 184.75 606.938 183.875C607.104 183 607.188 182.042 607.188 181C607.188 180.292 606.875 179.75 606.25 179.375C605.667 179 605 178.583 604.25 178.125C603.5 177.667 602.812 177.083 602.188 176.375C601.604 175.667 601.312 174.646 601.312 173.312C601.312 172.354 601.562 171.396 602.062 170.438C602.604 169.479 603.375 168.604 604.375 167.812C606.833 165.979 609.375 164.333 612 162.875C614.667 161.417 617.312 160.188 619.938 159.188C622.604 158.188 625.229 157.417 627.812 156.875C630.396 156.333 632.875 156.062 635.25 156.062C639.25 156.062 643 156.812 646.5 158.312C650.042 159.771 653.104 161.792 655.688 164.375C658.312 166.917 660.375 169.917 661.875 173.375C663.417 176.792 664.188 180.458 664.188 184.375C664.188 188.208 663.375 191.854 661.75 195.312C660.167 198.729 658.021 201.729 655.312 204.312C652.604 206.896 649.417 208.938 645.75 210.438C642.125 211.979 638.292 212.75 634.25 212.75C630.292 212.75 626.625 212.083 623.25 210.75C619.875 209.417 616.958 207.583 614.5 205.25C612.042 202.875 610.125 200.083 608.75 196.875C607.375 193.625 606.688 190.083 606.688 186.25ZM635.625 201.5C637.375 201.5 639.188 201.146 641.062 200.438C642.938 199.729 644.646 198.708 646.188 197.375C647.771 196 649.062 194.333 650.062 192.375C651.104 190.417 651.625 188.208 651.625 185.75C651.625 183.25 651.167 180.917 650.25 178.75C649.333 176.583 648.062 174.708 646.438 173.125C644.854 171.5 642.958 170.229 640.75 169.312C638.583 168.396 636.229 167.938 633.688 167.938C629.062 167.938 625.521 169.146 623.062 171.562C620.604 173.938 619.375 177.604 619.375 182.562C619.375 185.271 619.771 187.792 620.562 190.125C621.396 192.417 622.542 194.417 624 196.125C625.458 197.792 627.167 199.104 629.125 200.062C631.125 201.021 633.292 201.5 635.625 201.5ZM667.062 172.562C666.104 172.479 665.333 171.854 664.75 170.688C664.167 169.521 663.875 168.229 663.875 166.812C663.875 166.146 663.938 165.5 664.062 164.875C664.146 164.208 664.312 163.625 664.562 163.125C664.812 162.625 665.125 162.229 665.5 161.938C665.875 161.604 666.312 161.438 666.812 161.438C668.354 161.438 670.125 161.396 672.125 161.312C674.125 161.188 676.271 161.062 678.562 160.938C679.729 160.812 680.375 160.125 680.5 158.875C680.875 152.833 681.396 147.625 682.062 143.25C682.729 138.875 683.542 135.188 684.5 132.188C685.458 129.146 686.542 126.688 687.75 124.812C689 122.938 690.375 121.5 691.875 120.5C692.333 120.167 692.875 119.833 693.5 119.5C694.125 119.125 694.708 118.938 695.25 118.938C696.292 118.938 697.375 119.208 698.5 119.75C699.667 120.25 700.729 120.917 701.688 121.75C702.688 122.542 703.5 123.458 704.125 124.5C704.75 125.5 705.062 126.5 705.062 127.5C705.062 127.875 704.979 128.188 704.812 128.438C704.646 128.646 704.438 128.854 704.188 129.062C702.562 130.271 701.125 131.625 699.875 133.125C698.625 134.625 697.562 136.458 696.688 138.625C695.812 140.792 695.083 143.396 694.5 146.438C693.917 149.479 693.479 153.146 693.188 157.438C693.188 158.104 693.292 158.604 693.5 158.938C693.75 159.229 694.188 159.375 694.812 159.375C696.438 159.375 698.062 159.25 699.688 159C701.354 158.75 702.938 158.5 704.438 158.25C705.938 157.958 707.354 157.688 708.688 157.438C710.021 157.188 711.208 157.062 712.25 157.062C713 157.062 713.542 157.521 713.875 158.438C714.25 159.312 714.438 160.396 714.438 161.688C714.438 162.438 714.375 163.208 714.25 164C714.125 164.792 713.917 165.5 713.625 166.125C713.375 166.75 713.042 167.292 712.625 167.75C712.208 168.167 711.688 168.417 711.062 168.5L694.438 170.25C693.562 170.375 693.021 170.729 692.812 171.312C692.646 171.896 692.562 172.708 692.562 173.75C692.562 182.958 692.792 190.875 693.25 197.5C693.708 204.125 694.208 209.688 694.75 214.188C695.333 218.729 695.854 222.292 696.312 224.875C696.771 227.5 697 229.396 697 230.562C697 231.438 696.646 232.229 695.938 232.938C695.271 233.646 694.396 234.25 693.312 234.75C692.271 235.25 691.125 235.625 689.875 235.875C688.625 236.167 687.458 236.312 686.375 236.312C685.333 236.312 684.396 236.125 683.562 235.75C682.771 235.417 682.312 234.833 682.188 234C681.771 231.083 681.417 227.875 681.125 224.375C680.833 220.917 680.583 217.062 680.375 212.812C680.208 208.604 680.083 204 680 199C679.917 193.958 679.875 188.438 679.875 182.438C679.875 180.896 679.875 179.396 679.875 177.938C679.875 176.479 679.917 175.021 680 173.562C680 172.312 679.312 171.688 677.938 171.688L667.062 172.562ZM18.1875 262.812C18.1875 260.604 18.8125 259.062 20.0625 258.188C21.3125 257.271 23.375 256.812 26.25 256.812C27.2917 256.812 28.1667 256.917 28.875 257.125C29.625 257.292 30.25 257.625 30.75 258.125C31.2917 258.625 31.7083 259.292 32 260.125C32.3333 260.917 32.6042 261.938 32.8125 263.188C33.3125 267.062 33.8542 271.062 34.4375 275.188C35.0625 279.312 35.7083 283.458 36.375 287.625C36.625 289.5 37.6042 290.438 39.3125 290.438C39.7708 290.438 40.5208 290.396 41.5625 290.312C42.6458 290.188 43.9167 290.062 45.375 289.938C46.8333 289.771 48.3958 289.604 50.0625 289.438C51.7708 289.271 53.4583 289.125 55.125 289C56.8333 288.833 58.4375 288.708 59.9375 288.625C61.4792 288.5 62.8333 288.438 64 288.438C64.9167 288.438 65.6458 288.625 66.1875 289C66.7292 289.333 67.1458 289.792 67.4375 290.375C67.7708 290.917 67.9792 291.542 68.0625 292.25C68.1875 292.917 68.25 293.604 68.25 294.312C68.25 294.938 68.125 295.583 67.875 296.25C67.6667 296.917 67.3542 297.521 66.9375 298.062C66.5625 298.562 66.0833 298.979 65.5 299.312C64.9167 299.646 64.25 299.812 63.5 299.812C59.875 299.812 56.2083 299.938 52.5 300.188C48.8333 300.396 45.1667 300.688 41.5 301.062C39.625 301.312 38.6875 302.25 38.6875 303.875C38.6875 304 38.7083 304.167 38.75 304.375C38.7917 304.542 38.8125 304.688 38.8125 304.812C39.3125 308.438 39.7708 311.833 40.1875 315C40.6458 318.167 41.0208 321 41.3125 323.5C41.6458 325.958 41.8958 328.021 42.0625 329.688C42.2708 331.312 42.375 332.396 42.375 332.938C42.375 334.438 42.2292 335.688 41.9375 336.688C41.6458 337.729 41.1667 338.562 40.5 339.188C39.8333 339.854 38.9375 340.312 37.8125 340.562C36.7292 340.854 35.3542 341 33.6875 341C32.1042 341 30.9375 340.625 30.1875 339.875C29.4375 339.125 29.0208 337.979 28.9375 336.438C28.6875 331.521 28.2917 326.583 27.75 321.625C27.2083 316.625 26.5833 311.646 25.875 306.688C25.5 304.896 24.5625 304 23.0625 304C22.9375 304 22.7917 304.021 22.625 304.062C22.4583 304.104 22.3125 304.125 22.1875 304.125C19.6042 304.708 17.1667 305.292 14.875 305.875C12.5833 306.458 10.4375 307.083 8.4375 307.75C7.3125 308.125 6.3125 308.396 5.4375 308.562C4.5625 308.688 3.77083 308.75 3.0625 308.75C2.10417 308.75 1.39583 308.333 0.9375 307.5C0.479167 306.625 0.25 305.542 0.25 304.25C0.25 303.792 0.291667 303.271 0.375 302.688C0.458333 302.062 0.625 301.458 0.875 300.875C1.08333 300.25 1.41667 299.688 1.875 299.188C2.29167 298.646 2.875 298.208 3.625 297.875C5.375 297.167 7.70833 296.438 10.625 295.688C13.5417 294.896 16.8333 294.167 20.5 293.5C21.3333 293.292 21.9792 292.958 22.4375 292.5C22.9375 292 23.1875 291.271 23.1875 290.312C23.1875 290.104 23.1875 289.896 23.1875 289.688C23.1875 289.438 23.1458 289.188 23.0625 288.938C22.3958 285.104 21.75 281.625 21.125 278.5C20.5417 275.333 20.0208 272.625 19.5625 270.375C19.1458 268.125 18.8125 266.354 18.5625 265.062C18.3125 263.771 18.1875 263.021 18.1875 262.812ZM62.875 274.812C62.875 270.312 65.7917 268.062 71.625 268.062C72.625 268.062 73.5 268.333 74.25 268.875C75 269.417 75.4375 270.167 75.5625 271.125C75.9375 273.667 76.2708 276.188 76.5625 278.688C76.8542 281.188 77.125 284 77.375 287.125C77.6667 290.208 77.9375 293.792 78.1875 297.875C78.4792 301.917 78.7917 306.75 79.125 312.375C79.125 312.958 79.2083 313.375 79.375 313.625C79.5833 313.875 79.8125 314 80.0625 314C80.4375 314 80.8125 313.625 81.1875 312.875C82.6042 309.75 84.1875 306.958 85.9375 304.5C87.6875 302 89.5625 299.896 91.5625 298.188C93.5625 296.438 95.6667 295.125 97.875 294.25C100.125 293.333 102.417 292.875 104.75 292.875C107.833 292.875 110.625 293.75 113.125 295.5C115.625 297.25 117.75 299.729 119.5 302.938C121.25 306.146 122.604 310.042 123.562 314.625C124.521 319.167 125 324.25 125 329.875C125 331.417 124.875 332.688 124.625 333.688C124.417 334.646 124.042 335.417 123.5 336C122.958 336.583 122.208 336.979 121.25 337.188C120.292 337.438 119.104 337.562 117.688 337.562C115.729 337.562 114.312 337.188 113.438 336.438C112.604 335.688 112.188 334.521 112.188 332.938C112.188 329.021 111.917 325.333 111.375 321.875C110.875 318.375 110.167 315.312 109.25 312.688C108.333 310.062 107.25 307.979 106 306.438C104.792 304.896 103.479 304.125 102.062 304.125C98.8542 304.125 95.6458 306.729 92.4375 311.938C89.2708 317.146 85.9583 325 82.5 335.5C82.1667 336.458 81.7917 337.25 81.375 337.875C80.9583 338.5 80.4583 339 79.875 339.375C79.3333 339.75 78.6667 340 77.875 340.125C77.0833 340.292 76.1458 340.375 75.0625 340.375C72.8542 340.375 71.2708 339.958 70.3125 339.125C69.3958 338.292 68.8958 336.917 68.8125 335C68.5625 327.75 68.1042 320.833 67.4375 314.25C66.8125 307.625 66.1458 301.646 65.4375 296.312C64.7708 290.938 64.1667 286.396 63.625 282.688C63.125 278.938 62.875 276.312 62.875 274.812ZM186.562 321.312C187.771 320.271 188.958 319.75 190.125 319.75C190.792 319.75 191.396 319.917 191.938 320.25C192.479 320.583 193.083 321.104 193.75 321.812C194.375 322.771 194.812 323.562 195.062 324.188C195.354 324.771 195.5 325.354 195.5 325.938C195.5 327.188 194.875 328.375 193.625 329.5C191.625 331.167 189.458 332.667 187.125 334C184.792 335.292 182.354 336.396 179.812 337.312C177.271 338.229 174.646 338.917 171.938 339.375C169.229 339.875 166.542 340.125 163.875 340.125C160.5 340.125 157.333 339.688 154.375 338.812C151.417 337.979 148.771 336.771 146.438 335.188C144.146 333.604 142.208 331.708 140.625 329.5C139.042 327.25 137.917 324.729 137.25 321.938C136.875 320.771 136.521 320.021 136.188 319.688C135.896 319.312 135.396 319.125 134.688 319.125C133.146 319.125 131.958 318.75 131.125 318C130.292 317.25 129.875 316.167 129.875 314.75C129.875 314.167 129.917 313.792 130 313.625L130.125 312.375C130.333 310.875 130.729 309.792 131.312 309.125C131.938 308.458 132.896 308.125 134.188 308.125H135.125C136.875 308.125 138.104 307.312 138.812 305.688C140.104 302.812 141.75 300.188 143.75 297.812C145.75 295.438 148 293.417 150.5 291.75C153 290.042 155.667 288.729 158.5 287.812C161.375 286.854 164.292 286.375 167.25 286.375C170.333 286.375 173.208 286.833 175.875 287.75C178.583 288.625 180.938 289.854 182.938 291.438C184.938 293.021 186.5 294.875 187.625 297C188.792 299.125 189.375 301.417 189.375 303.875C189.375 305.583 189.042 307.146 188.375 308.562C187.708 309.979 186.75 311.229 185.5 312.312C184.25 313.354 182.729 314.208 180.938 314.875C179.188 315.542 177.188 315.979 174.938 316.188L153.25 318.375C152.417 318.375 151.729 318.583 151.188 319C150.688 319.417 150.438 319.979 150.438 320.688C150.438 321.771 150.833 322.812 151.625 323.812C152.458 324.812 153.542 325.708 154.875 326.5C156.25 327.25 157.812 327.854 159.562 328.312C161.354 328.771 163.188 329 165.062 329C166.854 329 168.688 328.833 170.562 328.5C172.479 328.125 174.354 327.604 176.188 326.938C178.062 326.271 179.875 325.479 181.625 324.562C183.375 323.604 185.021 322.521 186.562 321.312ZM172.625 305.188C173.25 305.062 173.792 304.771 174.25 304.312C174.708 303.812 174.938 303.208 174.938 302.5C174.938 301.875 174.708 301.292 174.25 300.75C173.792 300.208 173.167 299.729 172.375 299.312C171.583 298.854 170.667 298.5 169.625 298.25C168.583 298 167.479 297.875 166.312 297.875C164.604 297.875 162.854 298.125 161.062 298.625C159.271 299.125 157.646 299.792 156.188 300.625C154.729 301.417 153.542 302.312 152.625 303.312C151.708 304.271 151.25 305.229 151.25 306.188C151.25 307.146 151.833 307.625 153 307.625C153.708 307.625 154.854 307.542 156.438 307.375C158.021 307.208 159.771 307.021 161.688 306.812C163.604 306.562 165.542 306.292 167.5 306C169.458 305.708 171.167 305.438 172.625 305.188ZM271.688 289.312C271.854 289.396 272.104 289.438 272.438 289.438C273.354 289.438 273.812 288.833 273.812 287.625V268.188C273.812 265.729 274.354 263.979 275.438 262.938C276.562 261.896 278.417 261.375 281 261.375C283.625 261.375 285.479 261.917 286.562 263C287.646 264.083 288.188 265.938 288.188 268.562C288.188 269.562 288.125 271.042 288 273C287.875 274.917 287.729 277.104 287.562 279.562C287.438 282.021 287.312 284.667 287.188 287.5C287.062 290.292 287 293.062 287 295.812C287 300.062 287.292 303.729 287.875 306.812C288.458 309.896 289.292 312.458 290.375 314.5C291.458 316.5 292.75 318 294.25 319C295.75 319.958 297.438 320.438 299.312 320.438C300.354 320.438 301.292 320.312 302.125 320.062C303 319.771 304.021 319.625 305.188 319.625C306.021 319.625 306.708 320.062 307.25 320.938C307.833 321.771 308.125 322.792 308.125 324C308.125 325.083 307.792 326.104 307.125 327.062C306.5 328.021 305.625 328.854 304.5 329.562C303.417 330.271 302.146 330.833 300.688 331.25C299.229 331.625 297.708 331.812 296.125 331.812C292.708 331.812 289.583 330.771 286.75 328.688C283.917 326.562 281.792 323.333 280.375 319C280.25 318.333 280.042 318 279.75 318C279.417 318 279.146 318.333 278.938 319C277.812 322.042 276.333 324.792 274.5 327.25C272.708 329.667 270.604 331.75 268.188 333.5C265.812 335.208 263.188 336.521 260.312 337.438C257.479 338.354 254.479 338.812 251.312 338.812C247.979 338.812 244.917 338.25 242.125 337.125C239.375 336.042 237 334.521 235 332.562C233 330.562 231.438 328.229 230.312 325.562C229.188 322.854 228.625 319.938 228.625 316.812C228.625 312.812 229.458 309.042 231.125 305.5C232.792 301.958 235.042 298.875 237.875 296.25C240.75 293.583 244.083 291.479 247.875 289.938C251.667 288.396 255.708 287.625 260 287.625C261.75 287.625 263.604 287.771 265.562 288.062C267.521 288.312 269.562 288.729 271.688 289.312ZM253.75 327.562C256.125 327.562 258.229 327.042 260.062 326C261.938 324.958 263.583 323.646 265 322.062C266.458 320.438 267.688 318.667 268.688 316.75C269.688 314.792 270.5 312.896 271.125 311.062C271.75 309.229 272.208 307.583 272.5 306.125C272.792 304.667 272.938 303.625 272.938 303C272.938 302.542 272.812 302.146 272.562 301.812C272.312 301.438 271.938 301.146 271.438 300.938C270.312 300.646 269.146 300.396 267.938 300.188C266.729 299.938 265.542 299.729 264.375 299.562C263.208 299.396 262.083 299.271 261 299.188C259.958 299.104 259 299.062 258.125 299.062C255.625 299.062 253.354 299.438 251.312 300.188C249.271 300.938 247.521 302 246.062 303.375C244.646 304.75 243.542 306.396 242.75 308.312C241.958 310.188 241.562 312.25 241.562 314.5C241.562 316.5 241.854 318.312 242.438 319.938C243.062 321.521 243.896 322.875 244.938 324C246.021 325.125 247.312 326 248.812 326.625C250.312 327.25 251.958 327.562 253.75 327.562ZM305.688 314.25C305.688 313.542 305.771 312.75 305.938 311.875C306.104 311 306.188 310.042 306.188 309C306.188 308.292 305.875 307.75 305.25 307.375C304.667 307 304 306.583 303.25 306.125C302.5 305.667 301.812 305.083 301.188 304.375C300.604 303.667 300.312 302.646 300.312 301.312C300.312 300.354 300.562 299.396 301.062 298.438C301.604 297.479 302.375 296.604 303.375 295.812C305.833 293.979 308.375 292.333 311 290.875C313.667 289.417 316.312 288.188 318.938 287.188C321.604 286.188 324.229 285.417 326.812 284.875C329.396 284.333 331.875 284.062 334.25 284.062C338.25 284.062 342 284.812 345.5 286.312C349.042 287.771 352.104 289.792 354.688 292.375C357.312 294.917 359.375 297.917 360.875 301.375C362.417 304.792 363.188 308.458 363.188 312.375C363.188 316.208 362.375 319.854 360.75 323.312C359.167 326.729 357.021 329.729 354.312 332.312C351.604 334.896 348.417 336.938 344.75 338.438C341.125 339.979 337.292 340.75 333.25 340.75C329.292 340.75 325.625 340.083 322.25 338.75C318.875 337.417 315.958 335.583 313.5 333.25C311.042 330.875 309.125 328.083 307.75 324.875C306.375 321.625 305.688 318.083 305.688 314.25ZM334.625 329.5C336.375 329.5 338.188 329.146 340.062 328.438C341.938 327.729 343.646 326.708 345.188 325.375C346.771 324 348.062 322.333 349.062 320.375C350.104 318.417 350.625 316.208 350.625 313.75C350.625 311.25 350.167 308.917 349.25 306.75C348.333 304.583 347.062 302.708 345.438 301.125C343.854 299.5 341.958 298.229 339.75 297.312C337.583 296.396 335.229 295.938 332.688 295.938C328.062 295.938 324.521 297.146 322.062 299.562C319.604 301.938 318.375 305.604 318.375 310.562C318.375 313.271 318.771 315.792 319.562 318.125C320.396 320.417 321.542 322.417 323 324.125C324.458 325.792 326.167 327.104 328.125 328.062C330.125 329.021 332.292 329.5 334.625 329.5ZM404.438 286.25C406.438 286.25 408.333 286.417 410.125 286.75C411.917 287.042 413.542 287.375 415 287.75C416.458 288.083 417.708 288.417 418.75 288.75C419.792 289.042 420.542 289.188 421 289.188C421.375 289.188 421.729 289 422.062 288.625C422.396 288.208 422.812 287.771 423.312 287.312C423.812 286.854 424.479 286.438 425.312 286.062C426.146 285.646 427.25 285.438 428.625 285.438C430.208 285.438 431.458 285.854 432.375 286.688C433.292 287.479 433.75 288.479 433.75 289.688C433.75 304.938 433.229 317.896 432.188 328.562C431.146 339.188 429.458 347.833 427.125 354.5C424.792 361.167 421.771 366 418.062 369C414.354 372 409.854 373.5 404.562 373.5C402.146 373.5 399.625 372.958 397 371.875C394.417 370.792 392.042 369.396 389.875 367.688C387.708 366.021 385.917 364.167 384.5 362.125C383.125 360.083 382.438 358.125 382.438 356.25C382.438 355.625 382.771 354.896 383.438 354.062C384.104 353.229 384.917 352.417 385.875 351.625C386.833 350.833 387.833 350.167 388.875 349.625C389.917 349.083 390.812 348.812 391.562 348.812C392.354 348.812 393.021 349.125 393.562 349.75C394.104 350.417 394.604 351.229 395.062 352.188C395.562 353.146 396.062 354.188 396.562 355.312C397.062 356.479 397.688 357.542 398.438 358.5C399.188 359.458 400.104 360.25 401.188 360.875C402.271 361.542 403.625 361.875 405.25 361.875C414.333 361.875 419.667 348 421.25 320.25C421.25 319 420.896 318.375 420.188 318.375C419.604 318.375 419.146 318.667 418.812 319.25C414.896 324.542 410.312 328.521 405.062 331.188C399.854 333.812 394.062 335.125 387.688 335.125C384.729 335.125 382 334.688 379.5 333.812C377 332.896 374.833 331.646 373 330.062C371.208 328.438 369.812 326.521 368.812 324.312C367.812 322.062 367.312 319.604 367.312 316.938C367.312 314.312 367.771 311.729 368.688 309.188C369.646 306.604 370.958 304.188 372.625 301.938C374.333 299.646 376.354 297.542 378.688 295.625C381.021 293.708 383.562 292.062 386.312 290.688C389.062 289.271 391.958 288.188 395 287.438C398.083 286.646 401.229 286.25 404.438 286.25ZM389.625 323.625C395.333 323.625 400.562 321.833 405.312 318.25C410.062 314.625 414.125 309.375 417.5 302.5C417.583 302.25 417.646 302.062 417.688 301.938C417.729 301.771 417.75 301.604 417.75 301.438C417.75 301.021 417.312 300.583 416.438 300.125C415.562 299.667 414.417 299.271 413 298.938C411.583 298.604 409.958 298.333 408.125 298.125C406.333 297.875 404.521 297.75 402.688 297.75C399.729 297.75 396.875 298.25 394.125 299.25C391.375 300.25 388.938 301.583 386.812 303.25C384.688 304.917 382.979 306.812 381.688 308.938C380.396 311.062 379.75 313.271 379.75 315.562C379.75 318.021 380.646 319.979 382.438 321.438C384.271 322.896 386.667 323.625 389.625 323.625ZM480.438 262.812C480.438 260.604 481.062 259.062 482.312 258.188C483.562 257.271 485.625 256.812 488.5 256.812C489.542 256.812 490.417 256.917 491.125 257.125C491.875 257.292 492.5 257.625 493 258.125C493.542 258.625 493.958 259.292 494.25 260.125C494.583 260.917 494.854 261.938 495.062 263.188C495.562 267.062 496.104 271.062 496.688 275.188C497.312 279.312 497.958 283.458 498.625 287.625C498.875 289.5 499.854 290.438 501.562 290.438C502.021 290.438 502.771 290.396 503.812 290.312C504.896 290.188 506.167 290.062 507.625 289.938C509.083 289.771 510.646 289.604 512.312 289.438C514.021 289.271 515.708 289.125 517.375 289C519.083 288.833 520.688 288.708 522.188 288.625C523.729 288.5 525.083 288.438 526.25 288.438C527.167 288.438 527.896 288.625 528.438 289C528.979 289.333 529.396 289.792 529.688 290.375C530.021 290.917 530.229 291.542 530.312 292.25C530.438 292.917 530.5 293.604 530.5 294.312C530.5 294.938 530.375 295.583 530.125 296.25C529.917 296.917 529.604 297.521 529.188 298.062C528.812 298.562 528.333 298.979 527.75 299.312C527.167 299.646 526.5 299.812 525.75 299.812C522.125 299.812 518.458 299.938 514.75 300.188C511.083 300.396 507.417 300.688 503.75 301.062C501.875 301.312 500.938 302.25 500.938 303.875C500.938 304 500.958 304.167 501 304.375C501.042 304.542 501.062 304.688 501.062 304.812C501.562 308.438 502.021 311.833 502.438 315C502.896 318.167 503.271 321 503.562 323.5C503.896 325.958 504.146 328.021 504.312 329.688C504.521 331.312 504.625 332.396 504.625 332.938C504.625 334.438 504.479 335.688 504.188 336.688C503.896 337.729 503.417 338.562 502.75 339.188C502.083 339.854 501.188 340.312 500.062 340.562C498.979 340.854 497.604 341 495.938 341C494.354 341 493.188 340.625 492.438 339.875C491.688 339.125 491.271 337.979 491.188 336.438C490.938 331.521 490.542 326.583 490 321.625C489.458 316.625 488.833 311.646 488.125 306.688C487.75 304.896 486.812 304 485.312 304C485.188 304 485.042 304.021 484.875 304.062C484.708 304.104 484.562 304.125 484.438 304.125C481.854 304.708 479.417 305.292 477.125 305.875C474.833 306.458 472.688 307.083 470.688 307.75C469.562 308.125 468.562 308.396 467.688 308.562C466.812 308.688 466.021 308.75 465.312 308.75C464.354 308.75 463.646 308.333 463.188 307.5C462.729 306.625 462.5 305.542 462.5 304.25C462.5 303.792 462.542 303.271 462.625 302.688C462.708 302.062 462.875 301.458 463.125 300.875C463.333 300.25 463.667 299.688 464.125 299.188C464.542 298.646 465.125 298.208 465.875 297.875C467.625 297.167 469.958 296.438 472.875 295.688C475.792 294.896 479.083 294.167 482.75 293.5C483.583 293.292 484.229 292.958 484.688 292.5C485.188 292 485.438 291.271 485.438 290.312C485.438 290.104 485.438 289.896 485.438 289.688C485.438 289.438 485.396 289.188 485.312 288.938C484.646 285.104 484 281.625 483.375 278.5C482.792 275.333 482.271 272.625 481.812 270.375C481.396 268.125 481.062 266.354 480.812 265.062C480.562 263.771 480.438 263.021 480.438 262.812ZM525.125 274.812C525.125 270.312 528.042 268.062 533.875 268.062C534.875 268.062 535.75 268.333 536.5 268.875C537.25 269.417 537.688 270.167 537.812 271.125C538.188 273.667 538.521 276.188 538.812 278.688C539.104 281.188 539.375 284 539.625 287.125C539.917 290.208 540.188 293.792 540.438 297.875C540.729 301.917 541.042 306.75 541.375 312.375C541.375 312.958 541.458 313.375 541.625 313.625C541.833 313.875 542.062 314 542.312 314C542.688 314 543.062 313.625 543.438 312.875C544.854 309.75 546.438 306.958 548.188 304.5C549.938 302 551.812 299.896 553.812 298.188C555.812 296.438 557.917 295.125 560.125 294.25C562.375 293.333 564.667 292.875 567 292.875C570.083 292.875 572.875 293.75 575.375 295.5C577.875 297.25 580 299.729 581.75 302.938C583.5 306.146 584.854 310.042 585.812 314.625C586.771 319.167 587.25 324.25 587.25 329.875C587.25 331.417 587.125 332.688 586.875 333.688C586.667 334.646 586.292 335.417 585.75 336C585.208 336.583 584.458 336.979 583.5 337.188C582.542 337.438 581.354 337.562 579.938 337.562C577.979 337.562 576.562 337.188 575.688 336.438C574.854 335.688 574.438 334.521 574.438 332.938C574.438 329.021 574.167 325.333 573.625 321.875C573.125 318.375 572.417 315.312 571.5 312.688C570.583 310.062 569.5 307.979 568.25 306.438C567.042 304.896 565.729 304.125 564.312 304.125C561.104 304.125 557.896 306.729 554.688 311.938C551.521 317.146 548.208 325 544.75 335.5C544.417 336.458 544.042 337.25 543.625 337.875C543.208 338.5 542.708 339 542.125 339.375C541.583 339.75 540.917 340 540.125 340.125C539.333 340.292 538.396 340.375 537.312 340.375C535.104 340.375 533.521 339.958 532.562 339.125C531.646 338.292 531.146 336.917 531.062 335C530.812 327.75 530.354 320.833 529.688 314.25C529.062 307.625 528.396 301.646 527.688 296.312C527.021 290.938 526.417 286.396 525.875 282.688C525.375 278.938 525.125 276.312 525.125 274.812ZM634.875 280.375C637.167 280.375 639.375 280.729 641.5 281.438C643.625 282.146 645.5 283.125 647.125 284.375C648.75 285.625 650.042 287.125 651 288.875C652 290.625 652.5 292.562 652.5 294.688C652.5 295.562 652.292 296.417 651.875 297.25C651.5 298.042 650.979 298.75 650.312 299.375C649.646 299.958 648.875 300.438 648 300.812C647.167 301.146 646.292 301.312 645.375 301.312C645.292 301.312 645.208 301.333 645.125 301.375C645.083 301.375 645.021 301.375 644.938 301.375C644.854 301.417 644.771 301.438 644.688 301.438L644.938 306.438C645.104 312.396 645.938 316.75 647.438 319.5C648.979 322.25 650.979 323.625 653.438 323.625C654.312 323.625 655.083 323.542 655.75 323.375C656.458 323.208 657.104 323.021 657.688 322.812C658.312 322.562 658.896 322.354 659.438 322.188C659.979 322.021 660.521 321.938 661.062 321.938C662.021 321.938 662.854 322.354 663.562 323.188C664.312 324.021 664.688 325.021 664.688 326.188C664.688 327.354 664.229 328.521 663.312 329.688C662.438 330.854 661.271 331.917 659.812 332.875C658.354 333.792 656.708 334.542 654.875 335.125C653.042 335.708 651.188 336 649.312 336C646.062 336 643.208 334.667 640.75 332C638.292 329.292 636.542 325.333 635.5 320.125C635.25 319.292 634.917 318.875 634.5 318.875C634 318.875 633.562 319.125 633.188 319.625C629.062 324.833 624.667 328.75 620 331.375C615.333 333.958 610.729 335.25 606.188 335.25C604.062 335.25 602.146 334.938 600.438 334.312C598.729 333.688 597.271 332.812 596.062 331.688C594.896 330.521 593.979 329.125 593.312 327.5C592.688 325.833 592.375 323.979 592.375 321.938C592.375 319.062 593 316.042 594.25 312.875C595.542 309.708 597.271 306.583 599.438 303.5C601.604 300.417 604.104 297.479 606.938 294.688C609.812 291.896 612.812 289.438 615.938 287.312C619.104 285.188 622.312 283.5 625.562 282.25C628.812 281 631.917 280.375 634.875 280.375ZM632.812 302C633.562 300.583 634.25 299.562 634.875 298.938C635.5 298.271 636.396 297.833 637.562 297.625C638.479 297.5 638.938 297.208 638.938 296.75C638.938 296.417 638.812 296.062 638.562 295.688C637.771 294.604 636.938 293.667 636.062 292.875C635.188 292.042 634.021 291.625 632.562 291.625C630.979 291.625 629.208 292.083 627.25 293C625.292 293.917 623.292 295.146 621.25 296.688C619.25 298.188 617.271 299.917 615.312 301.875C613.396 303.792 611.688 305.771 610.188 307.812C608.688 309.854 607.479 311.875 606.562 313.875C605.646 315.875 605.188 317.667 605.188 319.25C605.188 320.667 605.562 321.771 606.312 322.562C607.104 323.354 608.167 323.75 609.5 323.75C612.917 323.75 616.646 321.938 620.688 318.312C624.729 314.688 628.771 309.25 632.812 302ZM672.562 262.812C672.562 260.604 673.188 259.062 674.438 258.188C675.688 257.271 677.75 256.812 680.625 256.812C681.667 256.812 682.542 256.917 683.25 257.125C684 257.292 684.625 257.625 685.125 258.125C685.667 258.625 686.083 259.292 686.375 260.125C686.708 260.917 686.979 261.938 687.188 263.188C687.688 267.062 688.229 271.062 688.812 275.188C689.438 279.312 690.083 283.458 690.75 287.625C691 289.5 691.979 290.438 693.688 290.438C694.146 290.438 694.896 290.396 695.938 290.312C697.021 290.188 698.292 290.062 699.75 289.938C701.208 289.771 702.771 289.604 704.438 289.438C706.146 289.271 707.833 289.125 709.5 289C711.208 288.833 712.812 288.708 714.312 288.625C715.854 288.5 717.208 288.438 718.375 288.438C719.292 288.438 720.021 288.625 720.562 289C721.104 289.333 721.521 289.792 721.812 290.375C722.146 290.917 722.354 291.542 722.438 292.25C722.562 292.917 722.625 293.604 722.625 294.312C722.625 294.938 722.5 295.583 722.25 296.25C722.042 296.917 721.729 297.521 721.312 298.062C720.938 298.562 720.458 298.979 719.875 299.312C719.292 299.646 718.625 299.812 717.875 299.812C714.25 299.812 710.583 299.938 706.875 300.188C703.208 300.396 699.542 300.688 695.875 301.062C694 301.312 693.062 302.25 693.062 303.875C693.062 304 693.083 304.167 693.125 304.375C693.167 304.542 693.188 304.688 693.188 304.812C693.688 308.438 694.146 311.833 694.562 315C695.021 318.167 695.396 321 695.688 323.5C696.021 325.958 696.271 328.021 696.438 329.688C696.646 331.312 696.75 332.396 696.75 332.938C696.75 334.438 696.604 335.688 696.312 336.688C696.021 337.729 695.542 338.562 694.875 339.188C694.208 339.854 693.312 340.312 692.188 340.562C691.104 340.854 689.729 341 688.062 341C686.479 341 685.312 340.625 684.562 339.875C683.812 339.125 683.396 337.979 683.312 336.438C683.062 331.521 682.667 326.583 682.125 321.625C681.583 316.625 680.958 311.646 680.25 306.688C679.875 304.896 678.938 304 677.438 304C677.312 304 677.167 304.021 677 304.062C676.833 304.104 676.688 304.125 676.562 304.125C673.979 304.708 671.542 305.292 669.25 305.875C666.958 306.458 664.812 307.083 662.812 307.75C661.688 308.125 660.688 308.396 659.812 308.562C658.938 308.688 658.146 308.75 657.438 308.75C656.479 308.75 655.771 308.333 655.312 307.5C654.854 306.625 654.625 305.542 654.625 304.25C654.625 303.792 654.667 303.271 654.75 302.688C654.833 302.062 655 301.458 655.25 300.875C655.458 300.25 655.792 299.688 656.25 299.188C656.667 298.646 657.25 298.208 658 297.875C659.75 297.167 662.083 296.438 665 295.688C667.917 294.896 671.208 294.167 674.875 293.5C675.708 293.292 676.354 292.958 676.812 292.5C677.312 292 677.562 291.271 677.562 290.312C677.562 290.104 677.562 289.896 677.562 289.688C677.562 289.438 677.521 289.188 677.438 288.938C676.771 285.104 676.125 281.625 675.5 278.5C674.917 275.333 674.396 272.625 673.938 270.375C673.521 268.125 673.188 266.354 672.938 265.062C672.688 263.771 672.562 263.021 672.562 262.812ZM108 436.25C108 429.667 108.792 424.604 110.375 421.062C111.958 417.521 114.229 415.75 117.188 415.75C121.896 415.75 124.25 419.812 124.25 427.938C124.25 430.812 124.083 433.521 123.75 436.062C123.458 438.604 123.021 441.062 122.438 443.438C122.354 443.771 122.292 444.083 122.25 444.375C122.208 444.667 122.188 444.938 122.188 445.188C122.188 446.062 122.354 446.833 122.688 447.5C124.771 452.792 128.625 455.438 134.25 455.438C136.25 455.438 138.125 455 139.875 454.125C141.625 453.25 143.146 452.062 144.438 450.562C145.729 449.021 146.729 447.229 147.438 445.188C148.188 443.146 148.562 440.938 148.562 438.562C148.562 435.896 148.25 433.688 147.625 431.938C147 430.146 146.312 428.625 145.562 427.375C144.812 426.083 144.125 424.917 143.5 423.875C142.875 422.792 142.562 421.583 142.562 420.25C142.562 419.625 142.833 418.979 143.375 418.312C143.958 417.604 144.667 416.958 145.5 416.375C146.375 415.792 147.312 415.312 148.312 414.938C149.354 414.562 150.333 414.375 151.25 414.375C152.458 414.375 153.646 415.042 154.812 416.375C156.021 417.708 157.083 419.458 158 421.625C158.958 423.75 159.708 426.188 160.25 428.938C160.833 431.688 161.125 434.458 161.125 437.25C161.125 441.292 160.375 445.104 158.875 448.688C157.375 452.271 155.333 455.417 152.75 458.125C150.167 460.833 147.146 462.979 143.688 464.562C140.271 466.146 136.646 466.938 132.812 466.938C129.562 466.938 126.667 466.354 124.125 465.188C121.625 464.062 119.312 462.062 117.188 459.188C116.854 458.646 116.521 458.271 116.188 458.062C115.854 457.854 115.521 457.75 115.188 457.75C114.771 457.75 114.396 457.854 114.062 458.062C113.729 458.271 113.375 458.646 113 459.188C110.167 462.896 107.125 465.542 103.875 467.125C100.667 468.708 97.125 469.5 93.25 469.5C88.9583 469.5 85.0833 468.312 81.625 465.938C78.2083 463.604 75.2917 460.271 72.875 455.938C70.4583 451.604 68.6042 446.354 67.3125 440.188C66.0208 433.979 65.375 427.042 65.375 419.375C65.375 416.25 65.5 413.667 65.75 411.625C66 409.542 66.4583 407.917 67.125 406.75C67.7917 405.542 68.6667 404.708 69.75 404.25C70.8333 403.75 72.2292 403.5 73.9375 403.5C75.7292 403.5 77.0208 403.854 77.8125 404.562C78.6458 405.229 79.0625 406.396 79.0625 408.062C79.0625 409.354 78.9375 410.812 78.6875 412.438C78.4375 414.021 78.3125 415.396 78.3125 416.562C78.3125 422.604 78.7292 428.167 79.5625 433.25C80.4375 438.333 81.625 442.708 83.125 446.375C84.6667 450.042 86.4792 452.896 88.5625 454.938C90.6875 456.979 93.0208 458 95.5625 458C101.229 458 105.417 455.104 108.125 449.312C108.375 448.854 108.542 448.438 108.625 448.062C108.708 447.646 108.75 447.208 108.75 446.75C108.75 446.5 108.75 446.25 108.75 446C108.75 445.708 108.708 445.396 108.625 445.062C108.417 443.479 108.25 441.979 108.125 440.562C108.042 439.104 108 437.667 108 436.25ZM176.875 399.25C175.667 399.25 174.521 399.083 173.438 398.75C172.396 398.375 171.479 397.875 170.688 397.25C169.938 396.583 169.333 395.812 168.875 394.938C168.417 394.062 168.188 393.104 168.188 392.062C168.188 390.312 168.875 388.896 170.25 387.812C171.667 386.729 173.542 386.188 175.875 386.188C176.958 386.188 178 386.396 179 386.812C180 387.188 180.875 387.708 181.625 388.375C182.417 389.042 183.042 389.833 183.5 390.75C183.958 391.625 184.188 392.542 184.188 393.5C184.188 395.292 183.521 396.708 182.188 397.75C180.896 398.75 179.125 399.25 176.875 399.25ZM168.312 418.312C168.312 416.854 168.938 415.667 170.188 414.75C171.479 413.792 173.167 413.312 175.25 413.312C179 413.312 181 414.604 181.25 417.188C181.417 418.979 181.583 421 181.75 423.25C181.958 425.5 182.146 427.896 182.312 430.438C182.521 432.938 182.688 435.542 182.812 438.25C182.979 440.917 183.125 443.562 183.25 446.188C183.375 448.771 183.479 451.271 183.562 453.688C183.646 456.104 183.688 458.312 183.688 460.312C183.688 462.396 182.938 463.958 181.438 465C179.979 466.042 177.833 466.562 175 466.562C173.708 466.562 172.688 466.25 171.938 465.625C171.229 465.042 170.875 464.167 170.875 463C170.875 457.25 170.729 451.875 170.438 446.875C170.188 441.833 169.896 437.354 169.562 433.438C169.271 429.521 168.979 426.271 168.688 423.688C168.438 421.062 168.312 419.271 168.312 418.312ZM191.875 391.812C191.875 389.646 192.5 388.104 193.75 387.188C195 386.271 197.062 385.812 199.938 385.812C200.938 385.812 201.812 385.917 202.562 386.125C203.312 386.333 203.938 386.688 204.438 387.188C204.938 387.646 205.333 388.292 205.625 389.125C205.958 389.917 206.229 390.938 206.438 392.188C206.979 395.896 207.521 399.792 208.062 403.875C208.646 407.917 209.188 411.958 209.688 416C210.229 420 210.729 423.917 211.188 427.75C211.646 431.542 212.042 435.083 212.375 438.375C212.75 441.625 213.021 444.521 213.188 447.062C213.396 449.562 213.5 451.542 213.5 453C213.5 454.5 213.354 455.771 213.062 456.812C212.812 457.854 212.354 458.688 211.688 459.312C211.062 459.938 210.229 460.396 209.188 460.688C208.188 460.938 206.938 461.062 205.438 461.062C203.979 461.062 202.812 460.688 201.938 459.938C201.104 459.188 200.688 458.042 200.688 456.5C200.688 454.917 200.562 452.812 200.312 450.188C200.062 447.521 199.729 444.562 199.312 441.312C198.896 438.062 198.417 434.604 197.875 430.938C197.375 427.271 196.833 423.646 196.25 420.062C195.708 416.479 195.167 413.042 194.625 409.75C194.125 406.417 193.667 403.479 193.25 400.938C192.833 398.354 192.5 396.25 192.25 394.625C192 392.958 191.875 392.021 191.875 391.812ZM220.125 391.812C220.125 389.646 220.75 388.104 222 387.188C223.25 386.271 225.312 385.812 228.188 385.812C229.188 385.812 230.062 385.917 230.812 386.125C231.562 386.333 232.188 386.688 232.688 387.188C233.188 387.646 233.583 388.292 233.875 389.125C234.208 389.917 234.479 390.938 234.688 392.188C235.229 395.896 235.771 399.792 236.312 403.875C236.896 407.917 237.438 411.958 237.938 416C238.479 420 238.979 423.917 239.438 427.75C239.896 431.542 240.292 435.083 240.625 438.375C241 441.625 241.271 444.521 241.438 447.062C241.646 449.562 241.75 451.542 241.75 453C241.75 454.5 241.604 455.771 241.312 456.812C241.062 457.854 240.604 458.688 239.938 459.312C239.312 459.938 238.479 460.396 237.438 460.688C236.438 460.938 235.188 461.062 233.688 461.062C232.229 461.062 231.062 460.688 230.188 459.938C229.354 459.188 228.938 458.042 228.938 456.5C228.938 454.917 228.812 452.812 228.562 450.188C228.312 447.521 227.979 444.562 227.562 441.312C227.146 438.062 226.667 434.604 226.125 430.938C225.625 427.271 225.083 423.646 224.5 420.062C223.958 416.479 223.417 413.042 222.875 409.75C222.375 406.417 221.917 403.479 221.5 400.938C221.083 398.354 220.75 396.25 220.5 394.625C220.25 392.958 220.125 392.021 220.125 391.812ZM297.688 408.75C300.479 408.75 303.354 409.125 306.312 409.875C309.271 410.583 311.979 411.521 314.438 412.688C316.896 413.812 318.917 415.083 320.5 416.5C322.083 417.917 322.875 419.292 322.875 420.625C322.875 421.292 322.583 422.042 322 422.875C321.417 423.667 320.708 424.438 319.875 425.188C319.042 425.896 318.125 426.5 317.125 427C316.167 427.458 315.312 427.688 314.562 427.688C313.562 427.688 312.438 427.271 311.188 426.438C309.979 425.604 308.625 424.688 307.125 423.688C305.667 422.646 304.062 421.708 302.312 420.875C300.562 420.042 298.667 419.625 296.625 419.625C295.292 419.625 294.188 419.958 293.312 420.625C292.479 421.25 292.062 422.146 292.062 423.312C292.062 424.354 292.562 425.417 293.562 426.5C294.562 427.542 295.875 428.625 297.5 429.75C299.167 430.875 301.042 432.062 303.125 433.312C305.208 434.562 307.333 435.896 309.5 437.312C311.708 438.729 313.854 440.271 315.938 441.938C318.021 443.604 319.875 445.417 321.5 447.375C323.167 449.333 324.5 451.479 325.5 453.812C326.5 456.104 327 458.604 327 461.312C327 463.646 326.583 465.771 325.75 467.688C324.917 469.604 323.729 471.25 322.188 472.625C320.646 474 318.812 475.062 316.688 475.812C314.562 476.562 312.229 476.938 309.688 476.938C306.479 476.938 303.521 476.438 300.812 475.438C298.104 474.479 295.771 473.146 293.812 471.438C291.854 469.729 290.312 467.688 289.188 465.312C288.104 462.938 287.562 460.333 287.562 457.5C287.562 453.833 288.208 451.167 289.5 449.5C290.833 447.833 292.917 447 295.75 447C297.5 447 298.896 447.333 299.938 448C300.979 448.667 301.5 449.479 301.5 450.438C301.5 450.938 301.417 451.458 301.25 452C301.083 452.5 300.896 453.042 300.688 453.625C300.521 454.167 300.354 454.75 300.188 455.375C300.062 456 300 456.625 300 457.25C300 458.333 300.25 459.375 300.75 460.375C301.25 461.375 301.917 462.25 302.75 463C303.625 463.792 304.625 464.417 305.75 464.875C306.875 465.333 308.062 465.562 309.312 465.562C312.646 465.562 314.312 464.188 314.312 461.438C314.312 459.271 313.458 457.229 311.75 455.312C310.042 453.354 307.896 451.458 305.312 449.625C302.729 447.75 299.938 445.875 296.938 444C293.979 442.125 291.208 440.167 288.625 438.125C286.042 436.083 283.896 433.917 282.188 431.625C280.479 429.292 279.625 426.771 279.625 424.062C279.625 421.812 280.083 419.75 281 417.875C281.958 416 283.25 414.396 284.875 413.062C286.5 411.688 288.396 410.625 290.562 409.875C292.771 409.125 295.146 408.75 297.688 408.75ZM342.375 440.875C342.375 446.458 343.229 450.771 344.938 453.812C346.646 456.854 349.125 458.375 352.375 458.375C354.417 458.375 356.292 457.771 358 456.562C359.75 455.354 361.25 453.667 362.5 451.5C363.75 449.333 364.708 446.771 365.375 443.812C366.083 440.812 366.438 437.562 366.438 434.062C366.438 431.938 366.354 430.104 366.188 428.562C366.021 426.979 365.833 425.583 365.625 424.375C365.458 423.125 365.292 422.021 365.125 421.062C364.958 420.104 364.875 419.188 364.875 418.312C364.875 416.979 365.438 416.021 366.562 415.438C367.688 414.812 369.479 414.5 371.938 414.5C375.062 414.5 377.479 415.208 379.188 416.625C380.938 418.042 381.812 420.104 381.812 422.812C381.812 430.188 381.083 436.812 379.625 442.688C378.208 448.562 376.146 453.562 373.438 457.688C370.771 461.771 367.521 464.917 363.688 467.125C359.854 469.333 355.562 470.438 350.812 470.438C347.438 470.438 344.312 469.729 341.438 468.312C338.604 466.938 336.146 465 334.062 462.5C332.021 459.958 330.417 456.958 329.25 453.5C328.083 450 327.5 446.167 327.5 442C327.5 440.417 327.542 438.729 327.625 436.938C327.708 435.146 327.833 433.229 328 431.188C328.167 429.104 328.375 426.854 328.625 424.438C328.917 422.021 329.229 419.396 329.562 416.562C329.688 415.354 330.25 414.396 331.25 413.688C332.292 412.938 333.604 412.562 335.188 412.562C336.604 412.562 337.938 412.708 339.188 413C340.438 413.292 341.5 413.688 342.375 414.188C343.292 414.688 344 415.271 344.5 415.938C345.042 416.604 345.312 417.312 345.312 418.062C345.312 418.812 345.146 420 344.812 421.625C344.521 423.208 344.188 425.042 343.812 427.125C343.479 429.167 343.146 431.396 342.812 433.812C342.521 436.188 342.375 438.542 342.375 440.875ZM423.25 416.25C421.708 416.25 420.354 416.667 419.188 417.5C418.021 418.292 417.021 419.417 416.188 420.875C415.354 422.292 414.667 423.979 414.125 425.938C413.583 427.854 413.146 429.958 412.812 432.25C412.479 434.542 412.25 436.938 412.125 439.438C412 441.938 411.938 444.458 411.938 447C411.938 450.333 412.062 453.625 412.312 456.875C412.604 460.083 412.75 463.062 412.75 465.812C412.75 467.604 412.083 469 410.75 470C409.417 471.042 407.521 471.562 405.062 471.562C404.604 471.562 404.083 471.521 403.5 471.438C402.917 471.354 402.354 471.188 401.812 470.938C401.312 470.688 400.854 470.333 400.438 469.875C400.062 469.458 399.854 468.875 399.812 468.125C399.438 464.458 398.896 460.708 398.188 456.875C397.479 453.042 396.583 449.229 395.5 445.438C394.458 441.604 393.188 437.812 391.688 434.062C390.229 430.312 388.542 426.646 386.625 423.062C386.292 422.438 386 421.854 385.75 421.312C385.542 420.771 385.438 420.25 385.438 419.75C385.438 419.125 385.708 418.458 386.25 417.75C386.833 417 387.542 416.312 388.375 415.688C389.25 415.062 390.188 414.562 391.188 414.188C392.229 413.771 393.229 413.562 394.188 413.562C395.771 413.562 397.167 414.667 398.375 416.875C399.583 419.042 400.708 422.521 401.75 427.312C401.958 428.146 402.125 428.729 402.25 429.062C402.375 429.396 402.542 429.562 402.75 429.562C403.208 429.562 403.5 428.854 403.625 427.438C404.125 423.479 404.979 420.083 406.188 417.25C407.396 414.375 408.896 412.021 410.688 410.188C412.521 408.312 414.604 406.938 416.938 406.062C419.312 405.188 421.917 404.75 424.75 404.75C426.375 404.75 428.021 404.896 429.688 405.188C431.354 405.479 432.854 405.917 434.188 406.5C435.521 407.083 436.604 407.792 437.438 408.625C438.271 409.458 438.688 410.396 438.688 411.438C438.688 412.188 438.521 413.083 438.188 414.125C437.896 415.125 437.5 416.104 437 417.062C436.5 417.979 435.917 418.771 435.25 419.438C434.625 420.062 433.979 420.375 433.312 420.375C432.562 420.375 431.833 420.167 431.125 419.75C430.417 419.292 429.646 418.812 428.812 418.312C428.021 417.812 427.167 417.354 426.25 416.938C425.375 416.479 424.375 416.25 423.25 416.25ZM428.688 419.375C428.688 417.75 429.417 416.521 430.875 415.688C432.333 414.812 434.417 414.375 437.125 414.375C437.75 414.375 438.312 414.458 438.812 414.625C439.312 414.792 439.75 415.125 440.125 415.625C440.542 416.083 440.917 416.729 441.25 417.562C441.583 418.396 441.917 419.458 442.25 420.75C442.583 422.208 442.917 422.938 443.25 422.938C443.542 422.938 443.896 422.333 444.312 421.125C445.062 418.75 446.042 416.688 447.25 414.938C448.5 413.146 449.896 411.667 451.438 410.5C452.979 409.292 454.646 408.396 456.438 407.812C458.271 407.229 460.188 406.938 462.188 406.938C466.229 406.938 470 407.708 473.5 409.25C477 410.75 480.021 412.854 482.562 415.562C485.104 418.229 487.104 421.396 488.562 425.062C490.021 428.688 490.75 432.625 490.75 436.875C490.75 441.375 489.958 445.542 488.375 449.375C486.833 453.208 484.667 456.521 481.875 459.312C479.083 462.062 475.75 464.208 471.875 465.75C468.042 467.333 463.833 468.125 459.25 468.125L456.062 468C454.188 468 453.25 469.062 453.25 471.188L456.438 499.875C456.396 500.583 456.146 501.229 455.688 501.812C455.271 502.438 454.688 502.979 453.938 503.438C453.229 503.896 452.375 504.25 451.375 504.5C450.417 504.75 449.417 504.875 448.375 504.875C445.375 504.875 443.75 503.896 443.5 501.938C442.625 494.354 441.646 487.146 440.562 480.312C439.521 473.479 438.438 467.125 437.312 461.25C436.229 455.333 435.167 449.958 434.125 445.125C433.083 440.292 432.146 436.083 431.312 432.5C430.521 428.917 429.896 426 429.438 423.75C428.938 421.5 428.688 420.042 428.688 419.375ZM449 435.875C449 438.583 449.104 441.271 449.312 443.938C449.521 446.562 449.854 449.417 450.312 452.5C450.562 454.375 451.583 455.438 453.375 455.688C454.458 455.938 455.667 456.188 457 456.438C458.375 456.646 459.521 456.75 460.438 456.75C463.104 456.75 465.521 456.354 467.688 455.562C469.854 454.771 471.708 453.646 473.25 452.188C474.792 450.688 475.979 448.917 476.812 446.875C477.646 444.833 478.062 442.562 478.062 440.062C478.062 437.021 477.646 434.188 476.812 431.562C475.979 428.896 474.833 426.583 473.375 424.625C471.958 422.667 470.271 421.125 468.312 420C466.396 418.875 464.312 418.312 462.062 418.312C460.104 418.312 458.312 418.75 456.688 419.625C455.104 420.458 453.729 421.646 452.562 423.188C451.438 424.688 450.562 426.521 449.938 428.688C449.312 430.854 449 433.25 449 435.875ZM537 408.375C539.292 408.375 541.5 408.729 543.625 409.438C545.75 410.146 547.625 411.125 549.25 412.375C550.875 413.625 552.167 415.125 553.125 416.875C554.125 418.625 554.625 420.562 554.625 422.688C554.625 423.562 554.417 424.417 554 425.25C553.625 426.042 553.104 426.75 552.438 427.375C551.771 427.958 551 428.438 550.125 428.812C549.292 429.146 548.417 429.312 547.5 429.312C547.417 429.312 547.333 429.333 547.25 429.375C547.208 429.375 547.146 429.375 547.062 429.375C546.979 429.417 546.896 429.438 546.812 429.438L547.062 434.438C547.229 440.396 548.062 444.75 549.562 447.5C551.104 450.25 553.104 451.625 555.562 451.625C556.438 451.625 557.208 451.542 557.875 451.375C558.583 451.208 559.229 451.021 559.812 450.812C560.438 450.562 561.021 450.354 561.562 450.188C562.104 450.021 562.646 449.938 563.188 449.938C564.146 449.938 564.979 450.354 565.688 451.188C566.438 452.021 566.812 453.021 566.812 454.188C566.812 455.354 566.354 456.521 565.438 457.688C564.562 458.854 563.396 459.917 561.938 460.875C560.479 461.792 558.833 462.542 557 463.125C555.167 463.708 553.312 464 551.438 464C548.188 464 545.333 462.667 542.875 460C540.417 457.292 538.667 453.333 537.625 448.125C537.375 447.292 537.042 446.875 536.625 446.875C536.125 446.875 535.688 447.125 535.312 447.625C531.188 452.833 526.792 456.75 522.125 459.375C517.458 461.958 512.854 463.25 508.312 463.25C506.188 463.25 504.271 462.938 502.562 462.312C500.854 461.688 499.396 460.812 498.188 459.688C497.021 458.521 496.104 457.125 495.438 455.5C494.812 453.833 494.5 451.979 494.5 449.938C494.5 447.062 495.125 444.042 496.375 440.875C497.667 437.708 499.396 434.583 501.562 431.5C503.729 428.417 506.229 425.479 509.062 422.688C511.938 419.896 514.938 417.438 518.062 415.312C521.229 413.188 524.438 411.5 527.688 410.25C530.938 409 534.042 408.375 537 408.375ZM534.938 430C535.688 428.583 536.375 427.562 537 426.938C537.625 426.271 538.521 425.833 539.688 425.625C540.604 425.5 541.062 425.208 541.062 424.75C541.062 424.417 540.938 424.062 540.688 423.688C539.896 422.604 539.062 421.667 538.188 420.875C537.312 420.042 536.146 419.625 534.688 419.625C533.104 419.625 531.333 420.083 529.375 421C527.417 421.917 525.417 423.146 523.375 424.688C521.375 426.188 519.396 427.917 517.438 429.875C515.521 431.792 513.812 433.771 512.312 435.812C510.812 437.854 509.604 439.875 508.688 441.875C507.771 443.875 507.312 445.667 507.312 447.25C507.312 448.667 507.688 449.771 508.438 450.562C509.229 451.354 510.292 451.75 511.625 451.75C515.042 451.75 518.771 449.938 522.812 446.312C526.854 442.688 530.896 437.25 534.938 430ZM584.438 408.75C587.229 408.75 590.104 409.125 593.062 409.875C596.021 410.583 598.729 411.521 601.188 412.688C603.646 413.812 605.667 415.083 607.25 416.5C608.833 417.917 609.625 419.292 609.625 420.625C609.625 421.292 609.333 422.042 608.75 422.875C608.167 423.667 607.458 424.438 606.625 425.188C605.792 425.896 604.875 426.5 603.875 427C602.917 427.458 602.062 427.688 601.312 427.688C600.312 427.688 599.188 427.271 597.938 426.438C596.729 425.604 595.375 424.688 593.875 423.688C592.417 422.646 590.812 421.708 589.062 420.875C587.312 420.042 585.417 419.625 583.375 419.625C582.042 419.625 580.938 419.958 580.062 420.625C579.229 421.25 578.812 422.146 578.812 423.312C578.812 424.354 579.312 425.417 580.312 426.5C581.312 427.542 582.625 428.625 584.25 429.75C585.917 430.875 587.792 432.062 589.875 433.312C591.958 434.562 594.083 435.896 596.25 437.312C598.458 438.729 600.604 440.271 602.688 441.938C604.771 443.604 606.625 445.417 608.25 447.375C609.917 449.333 611.25 451.479 612.25 453.812C613.25 456.104 613.75 458.604 613.75 461.312C613.75 463.646 613.333 465.771 612.5 467.688C611.667 469.604 610.479 471.25 608.938 472.625C607.396 474 605.562 475.062 603.438 475.812C601.312 476.562 598.979 476.938 596.438 476.938C593.229 476.938 590.271 476.438 587.562 475.438C584.854 474.479 582.521 473.146 580.562 471.438C578.604 469.729 577.062 467.688 575.938 465.312C574.854 462.938 574.312 460.333 574.312 457.5C574.312 453.833 574.958 451.167 576.25 449.5C577.583 447.833 579.667 447 582.5 447C584.25 447 585.646 447.333 586.688 448C587.729 448.667 588.25 449.479 588.25 450.438C588.25 450.938 588.167 451.458 588 452C587.833 452.5 587.646 453.042 587.438 453.625C587.271 454.167 587.104 454.75 586.938 455.375C586.812 456 586.75 456.625 586.75 457.25C586.75 458.333 587 459.375 587.5 460.375C588 461.375 588.667 462.25 589.5 463C590.375 463.792 591.375 464.417 592.5 464.875C593.625 465.333 594.812 465.562 596.062 465.562C599.396 465.562 601.062 464.188 601.062 461.438C601.062 459.271 600.208 457.229 598.5 455.312C596.792 453.354 594.646 451.458 592.062 449.625C589.479 447.75 586.688 445.875 583.688 444C580.729 442.125 577.958 440.167 575.375 438.125C572.792 436.083 570.646 433.917 568.938 431.625C567.229 429.292 566.375 426.771 566.375 424.062C566.375 421.812 566.833 419.75 567.75 417.875C568.708 416 570 414.396 571.625 413.062C573.25 411.688 575.146 410.625 577.312 409.875C579.521 409.125 581.896 408.75 584.438 408.75ZM631.562 408.75C634.354 408.75 637.229 409.125 640.188 409.875C643.146 410.583 645.854 411.521 648.312 412.688C650.771 413.812 652.792 415.083 654.375 416.5C655.958 417.917 656.75 419.292 656.75 420.625C656.75 421.292 656.458 422.042 655.875 422.875C655.292 423.667 654.583 424.438 653.75 425.188C652.917 425.896 652 426.5 651 427C650.042 427.458 649.188 427.688 648.438 427.688C647.438 427.688 646.312 427.271 645.062 426.438C643.854 425.604 642.5 424.688 641 423.688C639.542 422.646 637.938 421.708 636.188 420.875C634.438 420.042 632.542 419.625 630.5 419.625C629.167 419.625 628.062 419.958 627.188 420.625C626.354 421.25 625.938 422.146 625.938 423.312C625.938 424.354 626.438 425.417 627.438 426.5C628.438 427.542 629.75 428.625 631.375 429.75C633.042 430.875 634.917 432.062 637 433.312C639.083 434.562 641.208 435.896 643.375 437.312C645.583 438.729 647.729 440.271 649.812 441.938C651.896 443.604 653.75 445.417 655.375 447.375C657.042 449.333 658.375 451.479 659.375 453.812C660.375 456.104 660.875 458.604 660.875 461.312C660.875 463.646 660.458 465.771 659.625 467.688C658.792 469.604 657.604 471.25 656.062 472.625C654.521 474 652.688 475.062 650.562 475.812C648.438 476.562 646.104 476.938 643.562 476.938C640.354 476.938 637.396 476.438 634.688 475.438C631.979 474.479 629.646 473.146 627.688 471.438C625.729 469.729 624.188 467.688 623.062 465.312C621.979 462.938 621.438 460.333 621.438 457.5C621.438 453.833 622.083 451.167 623.375 449.5C624.708 447.833 626.792 447 629.625 447C631.375 447 632.771 447.333 633.812 448C634.854 448.667 635.375 449.479 635.375 450.438C635.375 450.938 635.292 451.458 635.125 452C634.958 452.5 634.771 453.042 634.562 453.625C634.396 454.167 634.229 454.75 634.062 455.375C633.938 456 633.875 456.625 633.875 457.25C633.875 458.333 634.125 459.375 634.625 460.375C635.125 461.375 635.792 462.25 636.625 463C637.5 463.792 638.5 464.417 639.625 464.875C640.75 465.333 641.938 465.562 643.188 465.562C646.521 465.562 648.188 464.188 648.188 461.438C648.188 459.271 647.333 457.229 645.625 455.312C643.917 453.354 641.771 451.458 639.188 449.625C636.604 447.75 633.812 445.875 630.812 444C627.854 442.125 625.083 440.167 622.5 438.125C619.917 436.083 617.771 433.917 616.062 431.625C614.354 429.292 613.5 426.771 613.5 424.062C613.5 421.812 613.958 419.75 614.875 417.875C615.833 416 617.125 414.396 618.75 413.062C620.375 411.688 622.271 410.625 624.438 409.875C626.646 409.125 629.021 408.75 631.562 408.75ZM215.125 543.25C214.583 543.333 214.125 543.396 213.75 543.438C213.375 543.479 213.062 543.5 212.812 543.5C211.396 543.417 210.396 543.021 209.812 542.312C209.229 541.562 208.938 540.333 208.938 538.625C208.938 535.25 210.562 533.125 213.812 532.25C216.688 531.583 219.771 531.104 223.062 530.812C226.354 530.479 230.021 530.312 234.062 530.312C239.479 530.312 244.854 530.833 250.188 531.875C255.562 532.917 260.667 534.354 265.5 536.188C270.375 537.979 274.896 540.125 279.062 542.625C283.229 545.083 286.833 547.771 289.875 550.688C292.958 553.562 295.354 556.604 297.062 559.812C298.812 562.979 299.688 566.167 299.688 569.375C299.688 572.625 298.583 575.729 296.375 578.688C294.208 581.604 291.271 584.188 287.562 586.438C283.854 588.688 279.562 590.479 274.688 591.812C269.812 593.146 264.708 593.812 259.375 593.812C255.125 593.812 250.688 593.417 246.062 592.625C241.438 591.833 236.333 590.562 230.75 588.812C228.167 588.104 226.875 586.521 226.875 584.062C226.875 583.521 227 583.021 227.25 582.562C227.5 582.104 227.75 581.667 228 581.25C228.292 580.833 228.562 580.438 228.812 580.062C229.062 579.646 229.188 579.229 229.188 578.812C229.188 576.438 229.062 573.896 228.812 571.188C228.604 568.479 228.292 565.771 227.875 563.062C227.5 560.354 227.042 557.771 226.5 555.312C226 552.812 225.479 550.604 224.938 548.688C224.396 546.771 223.833 545.25 223.25 544.125C222.708 542.958 222.208 542.375 221.75 542.375C221.042 542.375 220.167 542.458 219.125 542.625C218.125 542.792 216.792 543 215.125 543.25ZM239.188 542.25C237.979 542.25 237.375 542.667 237.375 543.5C237.375 543.708 237.438 544.062 237.562 544.562C237.688 545.062 237.875 545.854 238.125 546.938C238.5 548.688 238.854 550.562 239.188 552.562C239.521 554.562 239.854 556.812 240.188 559.312C240.521 561.771 240.833 564.542 241.125 567.625C241.458 570.667 241.792 574.104 242.125 577.938C242.167 578.562 242.729 579.167 243.812 579.75C244.896 580.292 246.333 580.792 248.125 581.25C249.917 581.667 251.958 582.021 254.25 582.312C256.583 582.562 258.979 582.688 261.438 582.688C264.688 582.688 267.792 582.312 270.75 581.562C273.75 580.771 276.375 579.729 278.625 578.438C280.917 577.146 282.729 575.646 284.062 573.938C285.438 572.229 286.125 570.458 286.125 568.625C286.125 565.583 284.917 562.625 282.5 559.75C280.125 556.875 276.833 554.271 272.625 551.938C268.417 549.562 263.458 547.542 257.75 545.875C252.042 544.167 245.854 542.958 239.188 542.25ZM305.5 570.25C305.5 569.542 305.583 568.75 305.75 567.875C305.917 567 306 566.042 306 565C306 564.292 305.688 563.75 305.062 563.375C304.479 563 303.812 562.583 303.062 562.125C302.312 561.667 301.625 561.083 301 560.375C300.417 559.667 300.125 558.646 300.125 557.312C300.125 556.354 300.375 555.396 300.875 554.438C301.417 553.479 302.188 552.604 303.188 551.812C305.646 549.979 308.188 548.333 310.812 546.875C313.479 545.417 316.125 544.188 318.75 543.188C321.417 542.188 324.042 541.417 326.625 540.875C329.208 540.333 331.688 540.062 334.062 540.062C338.062 540.062 341.812 540.812 345.312 542.312C348.854 543.771 351.917 545.792 354.5 548.375C357.125 550.917 359.188 553.917 360.688 557.375C362.229 560.792 363 564.458 363 568.375C363 572.208 362.188 575.854 360.562 579.312C358.979 582.729 356.833 585.729 354.125 588.312C351.417 590.896 348.229 592.938 344.562 594.438C340.938 595.979 337.104 596.75 333.062 596.75C329.104 596.75 325.438 596.083 322.062 594.75C318.688 593.417 315.771 591.583 313.312 589.25C310.854 586.875 308.938 584.083 307.562 580.875C306.188 577.625 305.5 574.083 305.5 570.25ZM334.438 585.5C336.188 585.5 338 585.146 339.875 584.438C341.75 583.729 343.458 582.708 345 581.375C346.583 580 347.875 578.333 348.875 576.375C349.917 574.417 350.438 572.208 350.438 569.75C350.438 567.25 349.979 564.917 349.062 562.75C348.146 560.583 346.875 558.708 345.25 557.125C343.667 555.5 341.771 554.229 339.562 553.312C337.396 552.396 335.042 551.938 332.5 551.938C327.875 551.938 324.333 553.146 321.875 555.562C319.417 557.938 318.188 561.604 318.188 566.562C318.188 569.271 318.583 571.792 319.375 574.125C320.208 576.417 321.354 578.417 322.812 580.125C324.271 581.792 325.979 583.104 327.938 584.062C329.938 585.021 332.104 585.5 334.438 585.5ZM404.25 542.25C406.25 542.25 408.146 542.417 409.938 542.75C411.729 543.042 413.354 543.375 414.812 543.75C416.271 544.083 417.521 544.417 418.562 544.75C419.604 545.042 420.354 545.188 420.812 545.188C421.188 545.188 421.542 545 421.875 544.625C422.208 544.208 422.625 543.771 423.125 543.312C423.625 542.854 424.292 542.438 425.125 542.062C425.958 541.646 427.062 541.438 428.438 541.438C430.021 541.438 431.271 541.854 432.188 542.688C433.104 543.479 433.562 544.479 433.562 545.688C433.562 560.938 433.042 573.896 432 584.562C430.958 595.188 429.271 603.833 426.938 610.5C424.604 617.167 421.583 622 417.875 625C414.167 628 409.667 629.5 404.375 629.5C401.958 629.5 399.438 628.958 396.812 627.875C394.229 626.792 391.854 625.396 389.688 623.688C387.521 622.021 385.729 620.167 384.312 618.125C382.938 616.083 382.25 614.125 382.25 612.25C382.25 611.625 382.583 610.896 383.25 610.062C383.917 609.229 384.729 608.417 385.688 607.625C386.646 606.833 387.646 606.167 388.688 605.625C389.729 605.083 390.625 604.812 391.375 604.812C392.167 604.812 392.833 605.125 393.375 605.75C393.917 606.417 394.417 607.229 394.875 608.188C395.375 609.146 395.875 610.188 396.375 611.312C396.875 612.479 397.5 613.542 398.25 614.5C399 615.458 399.917 616.25 401 616.875C402.083 617.542 403.438 617.875 405.062 617.875C414.146 617.875 419.479 604 421.062 576.25C421.062 575 420.708 574.375 420 574.375C419.417 574.375 418.958 574.667 418.625 575.25C414.708 580.542 410.125 584.521 404.875 587.188C399.667 589.812 393.875 591.125 387.5 591.125C384.542 591.125 381.812 590.688 379.312 589.812C376.812 588.896 374.646 587.646 372.812 586.062C371.021 584.438 369.625 582.521 368.625 580.312C367.625 578.062 367.125 575.604 367.125 572.938C367.125 570.312 367.583 567.729 368.5 565.188C369.458 562.604 370.771 560.188 372.438 557.938C374.146 555.646 376.167 553.542 378.5 551.625C380.833 549.708 383.375 548.062 386.125 546.688C388.875 545.271 391.771 544.188 394.812 543.438C397.896 542.646 401.042 542.25 404.25 542.25ZM389.438 579.625C395.146 579.625 400.375 577.833 405.125 574.25C409.875 570.625 413.938 565.375 417.312 558.5C417.396 558.25 417.458 558.062 417.5 557.938C417.542 557.771 417.562 557.604 417.562 557.438C417.562 557.021 417.125 556.583 416.25 556.125C415.375 555.667 414.229 555.271 412.812 554.938C411.396 554.604 409.771 554.333 407.938 554.125C406.146 553.875 404.333 553.75 402.5 553.75C399.542 553.75 396.688 554.25 393.938 555.25C391.188 556.25 388.75 557.583 386.625 559.25C384.5 560.917 382.792 562.812 381.5 564.938C380.208 567.062 379.562 569.271 379.562 571.562C379.562 574.021 380.458 575.979 382.25 577.438C384.083 578.896 386.479 579.625 389.438 579.625ZM497.25 577.312C498.458 576.271 499.646 575.75 500.812 575.75C501.479 575.75 502.083 575.917 502.625 576.25C503.167 576.583 503.771 577.104 504.438 577.812C505.062 578.771 505.5 579.562 505.75 580.188C506.042 580.771 506.188 581.354 506.188 581.938C506.188 583.188 505.562 584.375 504.312 585.5C502.312 587.167 500.146 588.667 497.812 590C495.479 591.292 493.042 592.396 490.5 593.312C487.958 594.229 485.333 594.917 482.625 595.375C479.917 595.875 477.229 596.125 474.562 596.125C471.188 596.125 468.021 595.688 465.062 594.812C462.104 593.979 459.458 592.771 457.125 591.188C454.833 589.604 452.896 587.708 451.312 585.5C449.729 583.25 448.604 580.729 447.938 577.938C447.562 576.771 447.208 576.021 446.875 575.688C446.583 575.312 446.083 575.125 445.375 575.125C443.833 575.125 442.646 574.75 441.812 574C440.979 573.25 440.562 572.167 440.562 570.75C440.562 570.167 440.604 569.792 440.688 569.625L440.812 568.375C441.021 566.875 441.417 565.792 442 565.125C442.625 564.458 443.583 564.125 444.875 564.125H445.812C447.562 564.125 448.792 563.312 449.5 561.688C450.792 558.812 452.438 556.188 454.438 553.812C456.438 551.438 458.688 549.417 461.188 547.75C463.688 546.042 466.354 544.729 469.188 543.812C472.062 542.854 474.979 542.375 477.938 542.375C481.021 542.375 483.896 542.833 486.562 543.75C489.271 544.625 491.625 545.854 493.625 547.438C495.625 549.021 497.188 550.875 498.312 553C499.479 555.125 500.062 557.417 500.062 559.875C500.062 561.583 499.729 563.146 499.062 564.562C498.396 565.979 497.438 567.229 496.188 568.312C494.938 569.354 493.417 570.208 491.625 570.875C489.875 571.542 487.875 571.979 485.625 572.188L463.938 574.375C463.104 574.375 462.417 574.583 461.875 575C461.375 575.417 461.125 575.979 461.125 576.688C461.125 577.771 461.521 578.812 462.312 579.812C463.146 580.812 464.229 581.708 465.562 582.5C466.938 583.25 468.5 583.854 470.25 584.312C472.042 584.771 473.875 585 475.75 585C477.542 585 479.375 584.833 481.25 584.5C483.167 584.125 485.042 583.604 486.875 582.938C488.75 582.271 490.562 581.479 492.312 580.562C494.062 579.604 495.708 578.521 497.25 577.312ZM483.312 561.188C483.938 561.062 484.479 560.771 484.938 560.312C485.396 559.812 485.625 559.208 485.625 558.5C485.625 557.875 485.396 557.292 484.938 556.75C484.479 556.208 483.854 555.729 483.062 555.312C482.271 554.854 481.354 554.5 480.312 554.25C479.271 554 478.167 553.875 477 553.875C475.292 553.875 473.542 554.125 471.75 554.625C469.958 555.125 468.333 555.792 466.875 556.625C465.417 557.417 464.229 558.312 463.312 559.312C462.396 560.271 461.938 561.229 461.938 562.188C461.938 563.146 462.521 563.625 463.688 563.625C464.396 563.625 465.542 563.542 467.125 563.375C468.708 563.208 470.458 563.021 472.375 562.812C474.292 562.562 476.229 562.292 478.188 562C480.146 561.708 481.854 561.438 483.312 561.188Z" fill="black"/>
</svg>
